<?xml version="1.0" encoding="utf-8" standalone="no"?>
<!DOCTYPE svg PUBLIC "-//W3C//DTD SVG 1.1//EN"
  "http://www.w3.org/Graphics/SVG/1.1/DTD/svg11.dtd">
<svg xmlns:xlink="http://www.w3.org/1999/xlink" width="345.6pt" height="302.4pt" viewBox="0 0 345.6 302.4" xmlns="http://www.w3.org/2000/svg" version="1.1">
 <metadata>
  <rdf:RDF xmlns:dc="http://purl.org/dc/elements/1.1/" xmlns:cc="http://creativecommons.org/ns#" xmlns:rdf="http://www.w3.org/1999/02/22-rdf-syntax-ns#">
   <cc:Work>
    <dc:type rdf:resource="http://purl.org/dc/dcmitype/StillImage"/>
    <dc:date>2026-06-06T21:00:51.335929</dc:date>
    <dc:format>image/svg+xml</dc:format>
    <dc:creator>
     <cc:Agent>
      <dc:title>Matplotlib v3.10.8, https://matplotlib.org/</dc:title>
     </cc:Agent>
    </dc:creator>
   </cc:Work>
  </rdf:RDF>
 </metadata>
 <defs>
  <style type="text/css">*{stroke-linejoin: round; stroke-linecap: butt}</style>
 </defs>
 <g id="figure_1">
  <g id="patch_1">
   <path d="M 0 302.4 
L 345.6 302.4 
L 345.6 0 
L 0 0 
z
" style="fill: #ffffff"/>
  </g>
  <g id="axes_1">
   <g id="patch_2">
    <path d="M 71.762599 259 
L 283.003348 259 
L 283.003348 25.8 
L 71.762599 25.8 
z
" style="fill: #ffffff"/>
   </g>
   <g id="matplotlib.axis_1">
    <g id="xtick_1">
     <g id="line2d_1">
      <defs>
       <path id="m5d051e0048" d="M 0 0 
L 0 3.5 
" style="stroke: #000000; stroke-width: 0.8"/>
      </defs>
      <g>
       <use xlink:href="#m5d051e0048" x="71.762599" y="259" style="stroke: #000000; stroke-width: 0.8"/>
      </g>
     </g>
     <g id="text_1">
      <!-- 0.0 -->
      <g transform="translate(63.811037 273.598438) scale(0.1 -0.1)">
       <defs>
        <path id="DejaVuSans-30" d="M 2034 4250 
Q 1547 4250 1301 3770 
Q 1056 3291 1056 2328 
Q 1056 1369 1301 889 
Q 1547 409 2034 409 
Q 2525 409 2770 889 
Q 3016 1369 3016 2328 
Q 3016 3291 2770 3770 
Q 2525 4250 2034 4250 
z
M 2034 4750 
Q 2819 4750 3233 4129 
Q 3647 3509 3647 2328 
Q 3647 1150 3233 529 
Q 2819 -91 2034 -91 
Q 1250 -91 836 529 
Q 422 1150 422 2328 
Q 422 3509 836 4129 
Q 1250 4750 2034 4750 
z
" transform="scale(0.015625)"/>
        <path id="DejaVuSans-2e" d="M 684 794 
L 1344 794 
L 1344 0 
L 684 0 
L 684 794 
z
" transform="scale(0.015625)"/>
       </defs>
       <use xlink:href="#DejaVuSans-30"/>
       <use xlink:href="#DejaVuSans-2e" transform="translate(63.623047 0)"/>
       <use xlink:href="#DejaVuSans-30" transform="translate(95.410156 0)"/>
      </g>
     </g>
    </g>
    <g id="xtick_2">
     <g id="line2d_2">
      <g>
       <use xlink:href="#m5d051e0048" x="114.010749" y="259" style="stroke: #000000; stroke-width: 0.8"/>
      </g>
     </g>
     <g id="text_2">
      <!-- 0.2 -->
      <g transform="translate(106.059187 273.598438) scale(0.1 -0.1)">
       <defs>
        <path id="DejaVuSans-32" d="M 1228 531 
L 3431 531 
L 3431 0 
L 469 0 
L 469 531 
Q 828 903 1448 1529 
Q 2069 2156 2228 2338 
Q 2531 2678 2651 2914 
Q 2772 3150 2772 3378 
Q 2772 3750 2511 3984 
Q 2250 4219 1831 4219 
Q 1534 4219 1204 4116 
Q 875 4013 500 3803 
L 500 4441 
Q 881 4594 1212 4672 
Q 1544 4750 1819 4750 
Q 2544 4750 2975 4387 
Q 3406 4025 3406 3419 
Q 3406 3131 3298 2873 
Q 3191 2616 2906 2266 
Q 2828 2175 2409 1742 
Q 1991 1309 1228 531 
z
" transform="scale(0.015625)"/>
       </defs>
       <use xlink:href="#DejaVuSans-30"/>
       <use xlink:href="#DejaVuSans-2e" transform="translate(63.623047 0)"/>
       <use xlink:href="#DejaVuSans-32" transform="translate(95.410156 0)"/>
      </g>
     </g>
    </g>
    <g id="xtick_3">
     <g id="line2d_3">
      <g>
       <use xlink:href="#m5d051e0048" x="156.258899" y="259" style="stroke: #000000; stroke-width: 0.8"/>
      </g>
     </g>
     <g id="text_3">
      <!-- 0.4 -->
      <g transform="translate(148.307336 273.598438) scale(0.1 -0.1)">
       <defs>
        <path id="DejaVuSans-34" d="M 2419 4116 
L 825 1625 
L 2419 1625 
L 2419 4116 
z
M 2253 4666 
L 3047 4666 
L 3047 1625 
L 3713 1625 
L 3713 1100 
L 3047 1100 
L 3047 0 
L 2419 0 
L 2419 1100 
L 313 1100 
L 313 1709 
L 2253 4666 
z
" transform="scale(0.015625)"/>
       </defs>
       <use xlink:href="#DejaVuSans-30"/>
       <use xlink:href="#DejaVuSans-2e" transform="translate(63.623047 0)"/>
       <use xlink:href="#DejaVuSans-34" transform="translate(95.410156 0)"/>
      </g>
     </g>
    </g>
    <g id="xtick_4">
     <g id="line2d_4">
      <g>
       <use xlink:href="#m5d051e0048" x="198.507049" y="259" style="stroke: #000000; stroke-width: 0.8"/>
      </g>
     </g>
     <g id="text_4">
      <!-- 0.6 -->
      <g transform="translate(190.555486 273.598438) scale(0.1 -0.1)">
       <defs>
        <path id="DejaVuSans-36" d="M 2113 2584 
Q 1688 2584 1439 2293 
Q 1191 2003 1191 1497 
Q 1191 994 1439 701 
Q 1688 409 2113 409 
Q 2538 409 2786 701 
Q 3034 994 3034 1497 
Q 3034 2003 2786 2293 
Q 2538 2584 2113 2584 
z
M 3366 4563 
L 3366 3988 
Q 3128 4100 2886 4159 
Q 2644 4219 2406 4219 
Q 1781 4219 1451 3797 
Q 1122 3375 1075 2522 
Q 1259 2794 1537 2939 
Q 1816 3084 2150 3084 
Q 2853 3084 3261 2657 
Q 3669 2231 3669 1497 
Q 3669 778 3244 343 
Q 2819 -91 2113 -91 
Q 1303 -91 875 529 
Q 447 1150 447 2328 
Q 447 3434 972 4092 
Q 1497 4750 2381 4750 
Q 2619 4750 2861 4703 
Q 3103 4656 3366 4563 
z
" transform="scale(0.015625)"/>
       </defs>
       <use xlink:href="#DejaVuSans-30"/>
       <use xlink:href="#DejaVuSans-2e" transform="translate(63.623047 0)"/>
       <use xlink:href="#DejaVuSans-36" transform="translate(95.410156 0)"/>
      </g>
     </g>
    </g>
    <g id="xtick_5">
     <g id="line2d_5">
      <g>
       <use xlink:href="#m5d051e0048" x="240.755198" y="259" style="stroke: #000000; stroke-width: 0.8"/>
      </g>
     </g>
     <g id="text_5">
      <!-- 0.8 -->
      <g transform="translate(232.803636 273.598438) scale(0.1 -0.1)">
       <defs>
        <path id="DejaVuSans-38" d="M 2034 2216 
Q 1584 2216 1326 1975 
Q 1069 1734 1069 1313 
Q 1069 891 1326 650 
Q 1584 409 2034 409 
Q 2484 409 2743 651 
Q 3003 894 3003 1313 
Q 3003 1734 2745 1975 
Q 2488 2216 2034 2216 
z
M 1403 2484 
Q 997 2584 770 2862 
Q 544 3141 544 3541 
Q 544 4100 942 4425 
Q 1341 4750 2034 4750 
Q 2731 4750 3128 4425 
Q 3525 4100 3525 3541 
Q 3525 3141 3298 2862 
Q 3072 2584 2669 2484 
Q 3125 2378 3379 2068 
Q 3634 1759 3634 1313 
Q 3634 634 3220 271 
Q 2806 -91 2034 -91 
Q 1263 -91 848 271 
Q 434 634 434 1313 
Q 434 1759 690 2068 
Q 947 2378 1403 2484 
z
M 1172 3481 
Q 1172 3119 1398 2916 
Q 1625 2713 2034 2713 
Q 2441 2713 2670 2916 
Q 2900 3119 2900 3481 
Q 2900 3844 2670 4047 
Q 2441 4250 2034 4250 
Q 1625 4250 1398 4047 
Q 1172 3844 1172 3481 
z
" transform="scale(0.015625)"/>
       </defs>
       <use xlink:href="#DejaVuSans-30"/>
       <use xlink:href="#DejaVuSans-2e" transform="translate(63.623047 0)"/>
       <use xlink:href="#DejaVuSans-38" transform="translate(95.410156 0)"/>
      </g>
     </g>
    </g>
    <g id="xtick_6">
     <g id="line2d_6">
      <g>
       <use xlink:href="#m5d051e0048" x="283.003348" y="259" style="stroke: #000000; stroke-width: 0.8"/>
      </g>
     </g>
     <g id="text_6">
      <!-- 1.0 -->
      <g transform="translate(275.051786 273.598438) scale(0.1 -0.1)">
       <defs>
        <path id="DejaVuSans-31" d="M 794 531 
L 1825 531 
L 1825 4091 
L 703 3866 
L 703 4441 
L 1819 4666 
L 2450 4666 
L 2450 531 
L 3481 531 
L 3481 0 
L 794 0 
L 794 531 
z
" transform="scale(0.015625)"/>
       </defs>
       <use xlink:href="#DejaVuSans-31"/>
       <use xlink:href="#DejaVuSans-2e" transform="translate(63.623047 0)"/>
       <use xlink:href="#DejaVuSans-30" transform="translate(95.410156 0)"/>
      </g>
     </g>
    </g>
    <g id="text_7">
     <!-- x -->
     <g transform="translate(174.423599 287.276563) scale(0.1 -0.1)">
      <defs>
       <path id="DejaVuSans-78" d="M 3513 3500 
L 2247 1797 
L 3578 0 
L 2900 0 
L 1881 1375 
L 863 0 
L 184 0 
L 1544 1831 
L 300 3500 
L 978 3500 
L 1906 2253 
L 2834 3500 
L 3513 3500 
z
" transform="scale(0.015625)"/>
      </defs>
      <use xlink:href="#DejaVuSans-78"/>
     </g>
    </g>
   </g>
   <g id="matplotlib.axis_2">
    <g id="ytick_1">
     <g id="line2d_7">
      <defs>
       <path id="m4f304c92e5" d="M 0 0 
L -3.5 0 
" style="stroke: #000000; stroke-width: 0.8"/>
      </defs>
      <g>
       <use xlink:href="#m4f304c92e5" x="71.762599" y="248.348368" style="stroke: #000000; stroke-width: 0.8"/>
      </g>
     </g>
     <g id="text_8">
      <!-- 0.0 -->
      <g transform="translate(48.859474 252.147587) scale(0.1 -0.1)">
       <use xlink:href="#DejaVuSans-30"/>
       <use xlink:href="#DejaVuSans-2e" transform="translate(63.623047 0)"/>
       <use xlink:href="#DejaVuSans-30" transform="translate(95.410156 0)"/>
      </g>
     </g>
    </g>
    <g id="ytick_2">
     <g id="line2d_8">
      <g>
       <use xlink:href="#m4f304c92e5" x="71.762599" y="206.100219" style="stroke: #000000; stroke-width: 0.8"/>
      </g>
     </g>
     <g id="text_9">
      <!-- 0.2 -->
      <g transform="translate(48.859474 209.899437) scale(0.1 -0.1)">
       <use xlink:href="#DejaVuSans-30"/>
       <use xlink:href="#DejaVuSans-2e" transform="translate(63.623047 0)"/>
       <use xlink:href="#DejaVuSans-32" transform="translate(95.410156 0)"/>
      </g>
     </g>
    </g>
    <g id="ytick_3">
     <g id="line2d_9">
      <g>
       <use xlink:href="#m4f304c92e5" x="71.762599" y="163.852069" style="stroke: #000000; stroke-width: 0.8"/>
      </g>
     </g>
     <g id="text_10">
      <!-- 0.4 -->
      <g transform="translate(48.859474 167.651288) scale(0.1 -0.1)">
       <use xlink:href="#DejaVuSans-30"/>
       <use xlink:href="#DejaVuSans-2e" transform="translate(63.623047 0)"/>
       <use xlink:href="#DejaVuSans-34" transform="translate(95.410156 0)"/>
      </g>
     </g>
    </g>
    <g id="ytick_4">
     <g id="line2d_10">
      <g>
       <use xlink:href="#m4f304c92e5" x="71.762599" y="121.603919" style="stroke: #000000; stroke-width: 0.8"/>
      </g>
     </g>
     <g id="text_11">
      <!-- 0.6 -->
      <g transform="translate(48.859474 125.403138) scale(0.1 -0.1)">
       <use xlink:href="#DejaVuSans-30"/>
       <use xlink:href="#DejaVuSans-2e" transform="translate(63.623047 0)"/>
       <use xlink:href="#DejaVuSans-36" transform="translate(95.410156 0)"/>
      </g>
     </g>
    </g>
    <g id="ytick_5">
     <g id="line2d_11">
      <g>
       <use xlink:href="#m4f304c92e5" x="71.762599" y="79.355769" style="stroke: #000000; stroke-width: 0.8"/>
      </g>
     </g>
     <g id="text_12">
      <!-- 0.8 -->
      <g transform="translate(48.859474 83.154988) scale(0.1 -0.1)">
       <use xlink:href="#DejaVuSans-30"/>
       <use xlink:href="#DejaVuSans-2e" transform="translate(63.623047 0)"/>
       <use xlink:href="#DejaVuSans-38" transform="translate(95.410156 0)"/>
      </g>
     </g>
    </g>
    <g id="ytick_6">
     <g id="line2d_12">
      <g>
       <use xlink:href="#m4f304c92e5" x="71.762599" y="37.107619" style="stroke: #000000; stroke-width: 0.8"/>
      </g>
     </g>
     <g id="text_13">
      <!-- 1.0 -->
      <g transform="translate(48.859474 40.906838) scale(0.1 -0.1)">
       <use xlink:href="#DejaVuSans-31"/>
       <use xlink:href="#DejaVuSans-2e" transform="translate(63.623047 0)"/>
       <use xlink:href="#DejaVuSans-30" transform="translate(95.410156 0)"/>
      </g>
     </g>
    </g>
    <g id="text_14">
     <!-- y -->
     <g transform="translate(42.779787 145.359375) rotate(-90) scale(0.1 -0.1)">
      <defs>
       <path id="DejaVuSans-79" d="M 2059 -325 
Q 1816 -950 1584 -1140 
Q 1353 -1331 966 -1331 
L 506 -1331 
L 506 -850 
L 844 -850 
Q 1081 -850 1212 -737 
Q 1344 -625 1503 -206 
L 1606 56 
L 191 3500 
L 800 3500 
L 1894 763 
L 2988 3500 
L 3597 3500 
L 2059 -325 
z
" transform="scale(0.015625)"/>
      </defs>
      <use xlink:href="#DejaVuSans-79"/>
     </g>
    </g>
   </g>
   <g id="LineCollection_1">
    <path d="M 71.762599 37.107619 
L 77.31322 37.107619 
L 83.022429 37.107619 
L 88.731638 37.107619 
L 94.440848 37.107619 
L 100.150057 37.107619 
L 105.859267 37.107619 
L 111.568476 37.107619 
L 117.277686 37.107619 
L 122.986895 37.107619 
L 128.696104 37.107619 
L 134.405314 37.107619 
L 140.114523 37.107619 
L 145.823733 37.107619 
L 151.532942 37.107619 
L 157.242152 37.107619 
L 162.951361 37.107619 
L 168.66057 37.107619 
L 174.36978 37.107619 
L 180.078989 37.107619 
L 185.788199 37.107619 
L 191.497408 37.107619 
L 197.206618 37.107619 
L 202.915827 37.107619 
L 208.625036 37.107619 
L 214.334246 37.107619 
L 220.043455 37.107619 
L 225.752665 37.107619 
L 231.461874 37.107619 
L 237.171084 37.107619 
L 242.880293 37.107619 
L 248.589502 37.107619 
L 254.298712 37.107619 
L 260.007921 37.107619 
L 265.717131 37.107619 
L 271.42634 37.107619 
L 277.13555 37.107619 
L 282.844759 37.107619 
L 283.003348 37.107619 
" clip-path="url(#p12118d7a18)" style="fill: none; stroke: #1f77b4; stroke-width: 0.75"/>
    <path d="M 128.572072 248.348368 
L 126.046792 248.297344 
L 120.338849 248.177207 
L 114.631183 248.044688 
L 108.924039 247.891746 
L 103.217926 247.705017 
L 97.514283 247.45641 
L 91.817889 247.083773 
L 88.314375 246.753105 
L 84.395229 245.715772 
L 80.818852 243.98234 
L 77.630398 242.48057 
L 77.630398 242.48057 
L 77.630398 242.48057 
L 77.630398 242.48057 
L 77.630398 242.48057 
L 76.162475 242.332985 
L 76.162475 242.332985 
L 76.162475 242.332985 
L 75.730286 242.921617 
L 75.678561 243.808371 
L 76.016203 245.050761 
L 76.381737 246.708903 
L 76.748019 248.348368 
" clip-path="url(#p12118d7a18)" style="fill: none; stroke: #1f77b4; stroke-width: 0.75"/>
    <path d="M 117.855675 245.253276 
L 112.1598 244.871436 
L 106.4747 244.360853 
L 100.814899 243.631617 
L 95.233794 242.48057 
L 89.857285 240.617215 
L 89.857285 240.617215 
L 85.657666 238.2621 
L 82.036919 235.12388 
L 79.283113 231.522307 
L 77.267563 227.542146 
L 75.870837 223.10846 
L 74.86073 218.025399 
L 74.135349 212.364252 
L 73.610326 206.680599 
L 73.216349 200.985461 
L 72.898989 195.285137 
L 72.626098 189.582489 
L 72.388878 183.878234 
L 72.181945 178.172795 
L 72.00174 172.466445 
L 71.845837 166.759377 
L 71.762599 163.465663 
" clip-path="url(#p12118d7a18)" style="fill: none; stroke: #1f77b4; stroke-width: 0.75"/>
    <path d="M 283.003348 104.429509 
L 282.854589 109.332761 
L 282.672557 115.039061 
L 282.469992 120.744663 
L 282.24084 126.449251 
L 281.977898 132.152369 
L 281.672742 137.853366 
L 281.309433 143.550839 
L 280.822794 149.238049 
L 280.139092 154.904357 
L 279.13943 160.520315 
L 277.662142 166.023791 
L 275.560306 171.321862 
L 272.935217 176.384301 
L 269.912683 181.221856 
L 266.594123 185.862478 
L 263.046455 190.33244 
L 259.307463 194.644783 
L 255.407334 198.812643 
L 251.376365 202.854722 
L 247.238663 206.787783 
L 243.018232 210.632238 
L 238.739161 214.411147 
L 234.426201 218.151084 
L 230.111281 221.888352 
L 225.823828 225.654872 
L 221.578702 229.467034 
L 217.342512 233.288205 
L 213.489377 236.522491 
L 209.402855 239.25834 
L 204.191377 241.504254 
L 198.648881 242.824545 
L 192.99582 243.595266 
L 187.306481 244.052614 
L 181.604149 244.317041 
L 175.896824 244.449356 
L 170.187901 244.48398 
L 164.478964 244.441895 
L 158.77088 244.334575 
L 153.064254 244.167581 
L 147.359545 243.945079 
L 141.657121 243.670125 
L 135.957404 243.343105 
L 130.261867 242.952633 
L 124.572787 242.48057 
" clip-path="url(#p12118d7a18)" style="fill: none; stroke: #1f77b4; stroke-width: 0.75"/>
    <path d="M 219.535752 233.837177 
L 216.100527 238.041893 
L 212.589765 242.48057 
L 212.589765 242.48057 
L 210.09777 244.494382 
L 207.012033 245.75031 
L 203.712521 246.40191 
L 198.872747 246.930032 
L 193.174724 247.27728 
L 187.469918 247.496168 
L 181.762484 247.634301 
L 176.053886 247.713669 
L 170.344814 247.747747 
L 164.635627 247.746798 
L 158.926507 247.717677 
L 153.21755 247.665175 
L 147.508784 247.594455 
L 141.800203 247.509933 
L 136.091801 247.414086 
L 130.383562 247.308926 
" clip-path="url(#p12118d7a18)" style="fill: none; stroke: #1f77b4; stroke-width: 0.75"/>
    <path d="M 217.907239 239.556859 
L 217.839862 241.104939 
L 218.457564 242.48057 
L 218.457564 242.48057 
L 218.457564 242.48057 
L 218.457564 242.48057 
L 218.457564 242.48057 
L 220.127143 243.655196 
L 222.059618 244.284566 
L 225.26971 244.850069 
L 230.019566 245.262839 
L 235.72392 245.470833 
L 241.43251 245.502125 
L 247.140043 245.390626 
L 252.842362 245.127854 
L 258.529925 244.65361 
L 264.167384 243.796823 
L 269.603123 242.154713 
L 269.603123 242.154713 
L 272.741398 240.318996 
L 275.34081 237.586389 
L 276.91093 234.670127 
L 278.044367 231.170675 
L 278.874763 226.842375 
L 279.541849 221.176512 
L 279.938694 215.482753 
L 280.180425 209.779902 
L 280.322556 204.073447 
L 280.393397 198.365391 
L 280.401357 192.656681 
L 280.327771 186.948343 
L 280.089871 181.245527 
L 279.257879 175.620947 
L 279.257879 175.620947 
L 279.257879 175.620947 
" clip-path="url(#p12118d7a18)" style="fill: none; stroke: #1f77b4; stroke-width: 0.75"/>
    <path d="M 277.13555 207.273778 
L 277.35039 201.569546 
L 277.393112 195.861278 
L 277.200194 190.157844 
L 276.362796 184.543856 
L 276.362796 184.543856 
L 275.635169 183.049307 
L 275.635169 183.049307 
L 274.584135 182.533332 
" clip-path="url(#p12118d7a18)" style="fill: none; stroke: #1f77b4; stroke-width: 0.75"/>
    <path d="M 279.987669 131.827999 
L 279.531338 137.518392 
L 278.940724 143.195514 
L 278.157455 148.848977 
L 277.13555 154.463591 
" clip-path="url(#p12118d7a18)" style="fill: none; stroke: #1f77b4; stroke-width: 0.75"/>
    <path d="M 283.003348 41.082378 
L 282.164817 45.401733 
L 281.271542 51.036947 
L 280.758262 56.720168 
L 280.44381 62.420474 
L 280.182576 68.123683 
L 279.942565 73.827834 
L 279.717176 79.532585 
L 279.495531 85.237421 
L 279.265303 90.941811 
L 279.018783 96.64546 
L 278.746665 102.347924 
L 278.437601 108.048516 
L 278.078762 113.746253 
L 277.652029 119.439237 
L 277.13555 125.124598 
" clip-path="url(#p12118d7a18)" style="fill: none; stroke: #1f77b4; stroke-width: 0.75"/>
    <path d="M 268.705435 40.257265 
L 272.531741 40.563416 
L 275.035042 41.00638 
L 276.603159 41.584204 
L 277.813501 42.679314 
L 277.813501 42.679314 
L 278.415355 44.584054 
L 278.415355 44.584054 
L 278.414275 49.36727 
L 278.414275 49.36727 
L 277.976966 55.059444 
L 277.541988 60.751917 
L 277.13555 66.446612 
" clip-path="url(#p12118d7a18)" style="fill: none; stroke: #1f77b4; stroke-width: 0.75"/>
    <path d="M 243.232783 179.180907 
L 239.176207 183.193294 
L 234.860438 186.925614 
L 230.304216 190.360123 
L 225.527065 193.479801 
L 220.549694 196.268815 
L 215.393481 198.711256 
L 210.081049 200.792137 
L 204.636586 202.497999 
L 199.085853 203.817144 
L 193.455734 204.740087 
L 187.77435 205.262282 
L 182.070306 205.382023 
L 176.371879 205.099888 
L 170.707151 204.419661 
L 165.103278 203.347702 
L 159.587126 201.889811 
L 154.185263 200.053341 
L 148.924271 197.845851 
L 143.831038 195.274897 
L 138.933457 192.348682 
L 134.260198 189.076459 
L 129.840999 185.468662 
L 125.70611 181.538437 
L 121.885533 177.302186 
L 118.407502 172.780596 
L 115.293517 168.000938 
L 112.558666 162.994446 
L 110.208939 157.795767 
L 108.242746 152.439844 
L 106.648218 146.961171 
L 105.409558 141.390903 
L 104.507964 135.755871 
L 103.920313 130.079128 
L 103.626221 124.379359 
L 103.607197 118.67181 
L 103.845979 112.969028 
L 104.32615 107.281355 
L 105.031062 101.616951 
L 105.940143 95.981516 
L 107.031358 90.37835 
L 108.283894 84.808854 
L 109.670126 79.27094 
L 111.160889 73.760333 
L 112.72676 68.27072 
L 114.337512 62.794581 
L 115.980276 57.328801 
L 117.283824 53.341359 
L 118.401802 50.742694 
L 120.408893 48.192836 
L 123.067964 46.606234 
L 123.067964 46.606234 
L 128.535551 45.093601 
L 134.178531 44.281576 
L 139.861195 43.754523 
L 145.557286 43.37837 
L 151.258662 43.094525 
L 156.962922 42.87118 
L 162.668916 42.691602 
L 168.376024 42.546064 
L 174.083865 42.427959 
L 179.792193 42.332509 
L 185.500851 42.256474 
L 191.209731 42.197254 
L 196.918752 42.152246 
L 202.627862 42.119415 
L 208.337026 42.097441 
L 214.04622 42.084674 
L 219.755426 42.079355 
L 225.464633 42.081443 
L 231.173831 42.091995 
L 236.883004 42.111652 
L 242.59211 42.144721 
L 248.300962 42.205255 
L 254.008936 42.316702 
L 259.713906 42.521313 
L 265.399952 42.975418 
" clip-path="url(#p12118d7a18)" style="fill: none; stroke: #1f77b4; stroke-width: 0.75"/>
    <path d="M 107.781165 69.785852 
L 108.842112 64.177702 
L 109.633539 58.528554 
L 109.985348 52.837975 
L 110.066279 50.057534 
L 110.391237 48.055283 
L 111.418066 46.315911 
L 111.418066 46.315911 
L 113.420067 45.023256 
L 113.420067 45.023256 
L 118.90959 43.641885 
L 124.572787 42.975418 
" clip-path="url(#p12118d7a18)" style="fill: none; stroke: #1f77b4; stroke-width: 0.75"/>
    <path d="M 231.686962 195.421075 
L 226.928499 198.570164 
L 221.982042 201.414744 
L 216.866016 203.94156 
L 211.599501 206.137593 
L 206.202318 207.989101 
L 200.695915 209.484378 
L 195.103399 210.615634 
L 189.448544 211.376544 
L 183.755962 211.765697 
L 178.049997 211.785333 
L 172.354442 211.439498 
L 166.692139 210.733854 
L 161.084861 209.675866 
L 155.553557 208.273945 
L 150.119319 206.53317 
L 144.803538 204.458741 
L 139.628378 202.055211 
L 134.618024 199.325219 
L 129.79927 196.270172 
L 125.202686 192.890565 
L 120.862863 189.187603 
L 116.816429 185.166503 
L 113.101565 180.83764 
L 109.751679 176.220835 
L 106.790057 171.345627 
L 104.227498 166.248956 
L 102.060187 160.97155 
L 100.270219 155.553691 
L 98.832587 150.031326 
L 97.720509 144.433799 
L 96.902749 138.785331 
L 96.353642 133.104117 
L 96.051479 127.404221 
L 95.97551 121.696601 
L 96.106964 115.989819 
L 96.428252 110.290412 
L 96.921709 104.603184 
L 97.568685 98.931276 
L 98.345823 93.275548 
L 99.2161 87.633217 
L 100.12872 81.997479 
L 101.019157 76.358405 
L 101.790492 70.70259 
L 102.285381 65.018915 
L 102.289523 59.79012 
L 101.486389 54.165901 
L 99.915101 49.116294 
L 99.183386 47.028114 
L 98.923047 45.534951 
L 99.38942 44.107731 
L 99.38942 44.107731 
L 101.101592 42.975418 
L 101.101592 42.975418 
L 101.101592 42.975418 
L 105.041731 42.021825 
L 108.786528 41.590786 
" clip-path="url(#p12118d7a18)" style="fill: none; stroke: #1f77b4; stroke-width: 0.75"/>
    <path d="M 93.67139 93.687198 
L 94.386046 88.022994 
L 95.108658 82.359769 
L 95.755662 76.687829 
L 96.202263 70.998178 
L 96.267177 65.295296 
L 95.768328 60.048875 
L 94.372592 54.586827 
L 92.017301 49.408554 
L 90.306145 46.321235 
L 89.552654 44.730165 
L 89.365995 42.975418 
L 89.365995 42.975418 
L 89.365995 42.975418 
L 89.365995 42.975418 
L 89.365995 42.975418 
L 90.078577 41.956203 
L 91.23291 41.334543 
L 92.892683 40.895875 
L 96.030295 40.449444 
" clip-path="url(#p12118d7a18)" style="fill: none; stroke: #1f77b4; stroke-width: 0.75"/>
    <path d="M 273.771117 147.078908 
L 272.38568 152.615279 
L 270.725007 158.074911 
L 268.762447 163.433183 
L 266.488406 168.666834 
L 263.896139 173.750129 
L 260.990548 178.661129 
L 257.788095 183.384164 
L 254.3076 187.906422 
L 250.570692 192.219435 
L 246.60206 196.320655 
L 242.423511 200.207954 
L 238.055717 203.881709 
L 233.515981 207.340824 
L 228.817572 210.580977 
L 223.971805 213.596093 
L 218.986487 216.374021 
L 213.8671 218.895715 
L 208.619043 221.136631 
L 203.250219 223.069912 
L 197.773319 224.670843 
L 192.206512 225.923564 
L 186.572306 226.828015 
L 180.893943 227.395861 
L 175.192509 227.647772 
L 169.485331 227.606704 
L 163.786299 227.294741 
L 158.106327 226.731825 
L 152.45509 225.930116 
L 146.841329 224.897875 
L 141.273428 223.641276 
L 135.762014 222.15722 
L 130.320438 220.43537 
L 124.967933 218.45491 
L 119.73407 216.18145 
L 114.662717 213.56817 
L 109.818619 210.557918 
L 105.286829 207.098897 
L 101.161689 203.165948 
L 97.522033 198.780683 
L 94.408993 194.005811 
L 91.812654 188.929012 
L 89.680639 183.637945 
L 87.947895 178.201889 
L 86.549198 172.669134 
L 85.42928 167.072641 
L 84.542695 161.433898 
L 83.849057 155.767886 
L 83.321564 150.083708 
L 82.939843 144.387754 
L 82.68793 138.684514 
L 82.553191 132.977217 
L 82.525482 127.268335 
L 82.596399 121.559778 
L 82.758371 115.853046 
L 83.003449 110.149247 
L 83.321165 104.448991 
L 83.698702 98.752367 
L 84.116618 93.058552 
L 84.54106 87.365229 
L 84.916217 81.66859 
L 85.155133 75.96528 
L 85.133023 70.258693 
L 84.689111 64.572918 
L 83.664543 58.966516 
L 82.016773 53.509118 
L 79.864744 48.226409 
L 77.630398 42.975418 
L 77.630398 42.975418 
L 77.132126 41.278903 
L 77.132126 41.278903 
L 77.327033 40.088266 
" clip-path="url(#p12118d7a18)" style="fill: none; stroke: #1f77b4; stroke-width: 0.75"/>
    <path d="M 226.272053 218.234282 
L 221.485602 221.34413 
L 216.579432 224.260224 
L 211.536558 226.931183 
L 206.338605 229.282933 
L 200.982218 231.244791 
L 195.488688 232.78168 
L 189.89507 233.905876 
L 184.238817 234.661939 
L 178.548844 235.106687 
L 172.843897 235.289465 
L 167.13584 235.248727 
L 161.432289 235.013122 
L 155.738682 234.60101 
L 150.059406 234.02384 
L 144.39817 233.290079 
L 138.759566 232.399681 
L 133.149805 231.343419 
L 127.576598 230.109075 
L 122.054772 228.664328 
L 116.608479 226.959506 
L 111.279741 224.921531 
L 106.137917 222.456274 
L 101.288534 219.464235 
L 96.866387 215.876054 
L 93.005928 211.691164 
L 89.782991 206.995193 
L 87.182145 201.924056 
L 85.125136 196.604736 
L 83.501838 191.134599 
L 82.216556 185.574383 
L 81.197207 179.958604 
L 80.382177 174.308972 
L 79.73247 168.637563 
L 79.219493 162.952079 
L 78.823121 157.257142 
L 78.527553 151.555882 
L 78.318414 145.850661 
L 78.183404 140.143165 
L 78.116042 134.434453 
L 78.112078 128.725333 
L 78.168009 123.016481 
L 78.280674 117.308464 
L 78.446326 111.601725 
L 78.65898 105.896527 
L 78.909381 100.192856 
L 79.182982 94.49024 
L 79.455356 88.787567 
L 79.687313 83.083191 
L 79.819207 77.375943 
L 79.766514 71.668242 
L 79.428788 65.971719 
L 78.72933 60.309082 
L 77.630398 54.711015 
" clip-path="url(#p12118d7a18)" style="fill: none; stroke: #1f77b4; stroke-width: 0.75"/>
    <path d="M 144.211246 238.136388 
L 138.538058 237.500025 
L 132.879365 236.745612 
L 127.240637 235.855958 
L 121.630761 234.801276 
L 116.064484 233.538634 
L 110.57256 231.990225 
L 105.20958 230.049178 
L 100.073212 227.580904 
L 95.3847 224.509319 
L 91.188253 220.686409 
L 87.683907 216.205077 
L 84.918952 211.226954 
L 82.798086 205.935886 
L 81.18323 200.465611 
L 79.94262 194.895709 
L 78.979512 189.270299 
L 78.228593 183.61191 
L 77.630398 177.934785 
" clip-path="url(#p12118d7a18)" style="fill: none; stroke: #1f77b4; stroke-width: 0.75"/>
    <path d="M 113.079621 238.242045 
L 107.508217 237.00817 
L 102.045002 235.373879 
L 96.936075 233.248032 
L 92.457962 230.622365 
L 88.451924 227.261919 
L 84.860198 222.85909 
L 82.122075 217.872503 
L 80.130068 212.531821 
L 78.687506 207.01383 
L 77.630398 201.40598 
" clip-path="url(#p12118d7a18)" style="fill: none; stroke: #1f77b4; stroke-width: 0.75"/>
    <path d="M 232.404544 224.431985 
L 230.110818 227.448428 
L 228.760011 229.804549 
L 228.081685 231.746167 
L 227.986793 233.556594 
L 228.641206 235.2242 
L 228.641206 235.2242 
L 230.193161 236.612771 
L 230.193161 236.612771 
L 230.193161 236.612771 
L 233.47278 237.907457 
L 236.611618 238.462204 
L 241.386575 238.757638 
L 247.085186 238.546178 
L 252.734101 237.773272 
L 258.238324 236.313119 
L 258.238324 236.313119 
L 262.625215 234.294181 
L 266.475993 231.313919 
L 269.079698 228.028989 
L 270.942173 224.358093 
L 272.371556 220.062291 
L 273.515687 214.578655 
L 274.199138 208.91503 
" clip-path="url(#p12118d7a18)" style="fill: none; stroke: #1f77b4; stroke-width: 0.75"/>
    <path d="M 271.267751 201.40598 
L 271.267751 201.40598 
L 270.678441 197.308266 
L 270.678441 197.308266 
L 269.863986 195.482302 
L 269.863986 195.482302 
L 268.755341 194.634462 
L 267.366196 194.614673 
L 265.932854 195.150921 
L 263.993711 196.335135 
L 261.217433 198.478437 
L 256.908695 202.21929 
L 252.69522 206.070216 
" clip-path="url(#p12118d7a18)" style="fill: none; stroke: #1f77b4; stroke-width: 0.75"/>
    <path d="M 273.978119 119.955692 
L 273.232801 125.615537 
L 272.340071 131.253681 
L 271.267751 136.860195 
L 269.986387 142.422514 
" clip-path="url(#p12118d7a18)" style="fill: none; stroke: #1f77b4; stroke-width: 0.75"/>
    <path d="M 273.9678 84.97371 
L 273.502784 90.66393 
L 273.020733 96.352725 
L 272.50249 102.038279 
L 271.925829 107.718103 
L 271.267751 113.389001 
" clip-path="url(#p12118d7a18)" style="fill: none; stroke: #1f77b4; stroke-width: 0.75"/>
    <path d="M 266.02828 46.416933 
L 268.313767 47.429614 
L 270.368874 49.261857 
L 271.531188 51.639226 
L 271.531188 51.639226 
L 272.215445 55.39431 
L 272.215445 55.39431 
L 272.36142 61.093445 
L 272.12186 66.796289 
L 271.729413 72.491748 
L 271.267751 78.18221 
" clip-path="url(#p12118d7a18)" style="fill: none; stroke: #1f77b4; stroke-width: 0.75"/>
    <path d="M 263.723978 120.554852 
L 262.577253 126.1468 
L 261.225141 131.692309 
L 259.637865 137.174848 
L 257.788251 142.573979 
L 255.650739 147.865271 
L 253.207894 153.022259 
L 250.446453 158.015464 
L 247.361134 162.814913 
L 243.953743 167.391035 
L 240.231579 171.714801 
L 236.207402 175.758916 
L 231.898414 179.497935 
L 227.324274 182.907082 
L 222.507391 185.963472 
L 217.472428 188.645236 
L 212.246493 190.932358 
L 206.858534 192.805941 
L 201.339928 194.250148 
L 195.72418 195.25143 
L 190.046373 195.799924 
L 184.34285 195.890807 
L 178.650604 195.522553 
L 173.006565 194.696215 
L 167.447525 193.417448 
L 162.010018 191.693868 
L 156.730413 189.534425 
L 151.644352 186.951677 
L 146.787479 183.960509 
L 142.19459 180.578152 
L 137.898737 176.825754 
L 133.931957 172.727234 
L 130.32242 168.310755 
L 127.093103 163.608746 
L 124.261831 158.656727 
L 121.839134 153.492215 
L 119.827804 148.153658 
L 118.224817 142.678465 
L 117.021091 137.101421 
L 116.204183 131.454415 
L 115.761983 125.765547 
L 115.680163 120.059813 
L 115.94461 114.359432 
L 116.542601 108.684158 
L 117.465559 103.052564 
L 118.707454 97.482692 
L 120.264902 91.992636 
L 122.141744 86.603799 
L 124.354383 81.3446 
L 126.926689 76.252816 
L 129.901615 71.387097 
L 133.334675 66.83641 
L 137.269953 62.71725 
L 141.710161 59.150722 
L 146.591351 56.213528 
L 151.802759 53.905502 
L 157.229931 52.151896 
L 162.782769 50.840628 
L 168.405085 49.861508 
L 174.06516 49.124874 
L 179.746028 48.563893 
L 185.438758 48.137136 
L 191.13844 47.813835 
L 196.842226 47.570029 
L 202.548469 47.389787 
L 208.256198 47.26285 
L 213.964763 47.17969 
L 219.673749 47.132254 
L 225.382916 47.118783 
L 231.09205 47.140922 
L 236.800901 47.200686 
L 242.508833 47.31478 
L 248.213225 47.534667 
L 253.904157 47.959384 
L 259.532154 48.843217 
L 259.532154 48.843217 
" clip-path="url(#p12118d7a18)" style="fill: none; stroke: #1f77b4; stroke-width: 0.75"/>
    <path d="M 138.563526 56.646989 
L 143.443418 53.715844 
L 148.702593 51.528283 
L 154.185152 49.963649 
L 159.779578 48.843217 
" clip-path="url(#p12118d7a18)" style="fill: none; stroke: #1f77b4; stroke-width: 0.75"/>
    <path d="M 160.04933 196.625974 
L 154.726739 194.572538 
L 149.573946 192.124379 
L 144.621995 189.292201 
L 139.901986 186.088538 
L 135.444798 182.528447 
L 131.280794 178.629522 
L 127.439052 174.412894 
L 123.945396 169.903612 
L 120.820862 165.130848 
L 118.081094 160.127049 
L 115.73339 154.927508 
L 113.777469 149.568014 
L 112.206555 144.082998 
L 111.009141 138.504021 
L 110.16804 132.859955 
L 109.667012 127.17537 
L 109.490343 121.471193 
L 109.620916 115.765571 
L 110.042532 110.073825 
L 110.742075 104.409434 
L 111.707957 98.784206 
L 112.925962 93.207946 
L 114.386371 87.69033 
L 116.085098 82.241427 
L 118.027505 76.874828 
L 120.231316 71.610773 
L 122.743122 66.488277 
L 125.655838 61.587228 
L 128.765632 57.4476 
L 132.193971 54.030895 
L 136.884032 50.931253 
L 142.176182 48.843217 
" clip-path="url(#p12118d7a18)" style="fill: none; stroke: #1f77b4; stroke-width: 0.75"/>
    <path d="M 187.855718 231.472795 
L 182.188024 232.138547 
L 176.491926 232.495687 
L 170.784846 232.582845 
L 165.078855 232.43173 
L 159.382481 232.064796 
L 153.702343 231.498639 
L 148.043981 230.744973 
" clip-path="url(#p12118d7a18)" style="fill: none; stroke: #1f77b4; stroke-width: 0.75"/>
    <path d="M 240.020765 219.67785 
L 237.632743 222.738454 
L 236.184636 225.158347 
L 235.455153 227.107853 
L 235.310303 228.883619 
L 236.060959 230.744973 
L 236.060959 230.744973 
L 236.060959 230.744973 
L 236.060959 230.744973 
L 237.754246 232.075893 
L 239.782333 232.804231 
L 242.672261 233.246697 
L 246.590065 233.229924 
L 251.425538 232.470389 
L 256.457209 230.718535 
L 260.691663 228.08277 
L 263.762645 224.959983 
L 266.014195 221.432645 
L 267.707485 217.325471 
" clip-path="url(#p12118d7a18)" style="fill: none; stroke: #1f77b4; stroke-width: 0.75"/>
    <path d="M 267.294387 149.080343 
L 265.399952 154.463591 
L 263.216602 159.736233 
L 260.732888 164.873952 
L 257.944123 169.852606 
L 254.854251 174.650064 
L 251.471642 179.24578 
L 247.808931 183.621591 
L 243.880777 187.760662 
L 239.70539 191.650375 
L 235.300739 195.27848 
L 230.684363 198.632971 
" clip-path="url(#p12118d7a18)" style="fill: none; stroke: #1f77b4; stroke-width: 0.75"/>
    <path d="M 266.762463 131.317327 
L 265.399952 136.860195 
L 263.80108 142.339275 
L 261.939963 147.734491 
L 259.795299 153.023089 
L 257.351326 158.179854 
L 254.598603 163.178397 
L 251.53575 167.992912 
" clip-path="url(#p12118d7a18)" style="fill: none; stroke: #1f77b4; stroke-width: 0.75"/>
    <path d="M 268.155472 79.112451 
L 267.715882 84.804605 
L 267.227221 90.492771 
L 266.68933 96.176494 
L 266.087271 101.853742 
L 265.399952 107.521202 
" clip-path="url(#p12118d7a18)" style="fill: none; stroke: #1f77b4; stroke-width: 0.75"/>
    <path d="M 250.624949 51.929205 
L 254.7706 52.756308 
L 257.893759 53.833125 
L 260.513021 55.387266 
L 262.821128 57.948848 
L 264.187276 61.018326 
L 264.187276 61.018326 
L 265.174334 66.615083 
L 265.399952 72.314411 
" clip-path="url(#p12118d7a18)" style="fill: none; stroke: #1f77b4; stroke-width: 0.75"/>
    <path d="M 222.757778 178.266336 
L 217.823931 181.128599 
L 212.667364 183.566303 
L 207.321774 185.554845 
L 201.824341 187.073529 
L 196.214948 188.104035 
L 190.536403 188.632941 
L 184.833288 188.653162 
L 179.151519 188.160858 
L 173.537652 187.157078 
L 168.03785 185.648361 
L 162.698406 183.645213 
L 157.564935 181.161729 
L 152.681749 178.216477 
L 148.091583 174.832484 
L 143.834822 171.037747 
L 139.947909 166.864724 
L 136.462063 162.351229 
L 133.402056 157.538778 
L 130.784951 152.471524 
L 128.620331 147.194703 
L 126.91014 141.753031 
L 125.65027 136.189542 
L 124.834236 130.543587 
L 124.450647 124.851538 
L 124.488859 119.146556 
L 124.940125 113.459141 
L 125.796444 107.818437 
L 127.05362 102.253469 
L 128.713886 96.795428 
L 130.78518 91.480283 
L 133.277543 86.34992 
L 136.211891 81.460316 
L 139.606435 76.879852 
L 143.466408 72.685874 
L 147.774172 68.954286 
L 152.478761 65.736252 
L 157.502371 63.039963 
L 162.761023 60.83196 
L 168.182506 59.055016 
L 173.711106 57.640683 
L 179.30833 56.524643 
L 184.949871 55.656098 
L 190.619342 54.99026 
L 196.306146 54.491263 
L 202.003776 54.134185 
L 207.707855 53.899345 
L 213.415342 53.76861 
L 219.124231 53.733093 
L 224.832864 53.795177 
L 230.539454 53.957758 
L 236.24115 54.238168 
L 241.928758 54.711015 
" clip-path="url(#p12118d7a18)" style="fill: none; stroke: #1f77b4; stroke-width: 0.75"/>
    <path d="M 228.139535 204.939835 
L 223.234675 207.857091 
L 218.174083 210.494848 
L 212.971181 212.839013 
L 207.640081 214.874309 
L 202.196919 216.586894 
L 196.659414 217.96404 
L 191.047572 218.997642 
L 185.383074 219.686763 
L 179.687248 220.035099 
L 173.980606 220.050397 
L 168.282059 219.743434 
L 162.608696 219.125309 
L 156.976097 218.206688 
L 151.398348 216.998202 
L 145.890052 215.505047 
L 140.465951 213.73043 
L 135.142742 211.673082 
L 129.941337 209.325488 
L 124.887973 206.675055 
L 120.017781 203.702622 
L 115.377874 200.383881 
L 111.024481 196.698859 
L 107.019306 192.639447 
L 103.418689 188.217506 
L 100.259562 183.469698 
L 97.552207 178.449684 
L 95.27993 173.217305 
L 93.404514 167.828403 
L 91.88231 162.328659 
L 90.669256 156.751763 
L 89.722814 151.123134 
L 89.012767 145.459514 
L 88.51258 139.773207 
L 88.198709 134.073335 
L 88.05145 128.366613 
L 88.0571 122.657906 
L 88.20404 116.951012 
L 88.480599 111.248854 
L 88.872707 105.5534 
L 89.361846 99.865369 
L 89.922949 94.183889 
L 90.522075 88.506251 
L 91.107886 82.827326 
L 91.598133 77.139792 
L 91.865666 71.439126 
L 91.727567 65.737991 
L 90.968554 60.168963 
L 89.365995 54.711015 
" clip-path="url(#p12118d7a18)" style="fill: none; stroke: #1f77b4; stroke-width: 0.75"/>
    <path d="M 252.434372 224.437009 
L 255.686674 222.653288 
L 258.451483 220.025672 
L 260.43409 216.90075 
L 261.500427 213.913637 
L 261.822265 211.58704 
L 261.672346 209.955054 
L 261.088439 208.744609 
L 259.867483 208.11112 
L 259.867483 208.11112 
L 257.954966 208.464855 
L 257.954966 208.464855 
L 253.23223 211.580378 
L 249.56007 215.072442 
L 247.310246 217.775846 
L 246.016168 219.874771 
L 245.414402 221.500876 
L 245.366588 222.927899 
L 246.070519 224.146424 
L 246.070519 224.146424 
L 247.796557 224.877174 
L 247.796557 224.877174 
L 247.796557 224.877174 
" clip-path="url(#p12118d7a18)" style="fill: none; stroke: #1f77b4; stroke-width: 0.75"/>
    <path d="M 259.532154 189.670383 
L 255.878215 194.054302 
L 252.011045 198.251997 
L 247.965447 202.27873 
L 243.768361 206.147603 
L 239.44187 209.871492 
" clip-path="url(#p12118d7a18)" style="fill: none; stroke: #1f77b4; stroke-width: 0.75"/>
    <path d="M 261.9694 102.309501 
L 261.307045 107.979715 
L 260.502297 113.631404 
L 259.532154 119.2568 
L 258.365367 124.844374 
" clip-path="url(#p12118d7a18)" style="fill: none; stroke: #1f77b4; stroke-width: 0.75"/>
    <path d="M 241.40286 57.959744 
L 246.139953 59.003825 
L 249.7254 60.24929 
L 252.664911 61.887875 
L 255.341218 64.418272 
L 257.202901 67.569115 
L 257.202901 67.569115 
L 258.796285 73.016454 
L 259.509637 78.672302 
L 259.767144 84.373338 
L 259.749097 90.081309 
L 259.532154 95.785605 
" clip-path="url(#p12118d7a18)" style="fill: none; stroke: #1f77b4; stroke-width: 0.75"/>
    <path d="M 148.656898 76.125917 
L 153.085316 72.537261 
L 157.881353 69.455872 
L 162.967763 66.878002 
L 168.267844 64.769767 
L 173.716426 63.076715 
L 179.263901 61.738679 
L 184.876795 60.704478 
L 190.531508 59.92675 
L 196.212306 59.367872 
L 201.909096 59.003847 
L 207.614548 58.816422 
L 213.323096 58.790959 
L 219.029943 58.927892 
L 224.729234 59.245718 
L 230.412385 59.772762 
L 236.060959 60.578814 
" clip-path="url(#p12118d7a18)" style="fill: none; stroke: #1f77b4; stroke-width: 0.75"/>
    <path d="M 131.832817 76.331759 
L 135.188715 71.722653 
L 139.017876 67.501423 
L 143.318119 63.762773 
L 148.043981 60.578814 
L 153.109356 57.965664 
" clip-path="url(#p12118d7a18)" style="fill: none; stroke: #1f77b4; stroke-width: 0.75"/>
    <path d="M 102.000727 170.330283 
L 99.762834 165.082372 
L 97.909597 159.68606 
L 96.410611 154.180091 
L 95.233794 148.595792 
" clip-path="url(#p12118d7a18)" style="fill: none; stroke: #1f77b4; stroke-width: 0.75"/>
    <path d="M 113.271067 220.890534 
L 108.211043 218.25982 
L 103.439326 215.141501 
L 99.075377 211.479435 
L 95.233794 207.273778 
" clip-path="url(#p12118d7a18)" style="fill: none; stroke: #1f77b4; stroke-width: 0.75"/>
    <path d="M 147.695238 220.463537 
L 142.176182 219.009375 
L 136.731311 217.298118 
L 131.37662 215.32314 
L 126.133454 213.069527 
L 121.033109 210.510734 
L 116.118969 207.612393 
" clip-path="url(#p12118d7a18)" style="fill: none; stroke: #1f77b4; stroke-width: 0.75"/>
    <path d="M 255.391703 131.420693 
L 253.664355 136.860195 
L 251.640949 142.19616 
L 249.299016 147.399698 
L 246.623588 152.439313 
L 243.604912 157.280681 
L 240.241487 161.888814 
L 236.538775 166.228747 
L 232.509133 170.266606 
L 228.170351 173.969975 
" clip-path="url(#p12118d7a18)" style="fill: none; stroke: #1f77b4; stroke-width: 0.75"/>
    <path d="M 240.872044 63.625254 
L 244.648242 65.223411 
L 247.866027 67.312617 
L 250.808783 70.418842 
L 252.86462 74.093605 
L 252.86462 74.093605 
L 254.542925 79.524368 
L 255.414727 85.158708 
L 255.809133 90.850521 
L 255.8738 96.557239 
L 255.674658 102.261467 
L 255.238613 107.95268 
L 254.571113 113.621459 
L 253.664355 119.2568 
L 252.502293 124.844659 
" clip-path="url(#p12118d7a18)" style="fill: none; stroke: #1f77b4; stroke-width: 0.75"/>
    <path d="M 250.68512 116.071697 
L 249.725793 121.697566 
L 248.456089 127.261297 
L 246.858289 132.739383 
L 244.912973 138.103354 
L 242.602902 143.320169 
L 239.914479 148.351906 
L 236.839852 153.156741 
L 233.379786 157.691186 
L 229.542659 161.91085 
L 225.345609 165.772182 
L 220.813208 169.232843 
L 215.97592 172.252168 
L 210.871052 174.792423 
L 205.541959 176.819673 
L 200.036898 178.30321 
L 194.409671 179.219238 
L 188.718358 179.550508 
L 183.023659 179.285165 
L 177.388886 178.420708 
L 171.877882 176.962938 
L 166.554392 174.923669 
L 161.481195 172.323589 
L 156.718445 169.191375 
L 152.322097 165.562753 
L 148.34218 161.481605 
L 144.821055 156.998054 
L 141.791971 152.168287 
L 139.277467 147.051239 
L 137.29016 141.706877 
L 135.834428 136.193574 
L 134.90911 130.566605 
L 134.507038 124.877856 
L 134.620723 119.175947 
L 135.244161 113.506928 
L 136.372399 107.916509 
L 138.005568 102.452842 
L 140.145778 97.167495 
L 142.796861 92.119823 
L 145.961063 87.378208 
L 149.626415 83.01344 
L 153.763117 79.093224 
L 158.319319 75.668364 
L 163.221404 72.75699 
L 168.389898 70.347056 
L 173.75219 68.401401 
L 179.24763 66.867574 
L 184.832976 65.698151 
L 190.476229 64.846251 
L 196.155007 64.27415 
L 201.854133 63.961198 
L 207.561528 63.895349 
L 213.266415 64.073419 
L 218.956126 64.517246 
L 224.610755 65.279971 
L 230.193161 66.446612 
L 235.619123 68.182664 
L 240.669478 70.783066 
L 240.669478 70.783066 
L 244.035819 73.540574 
L 246.742812 76.972693 
L 248.670649 80.759213 
L 250.088354 85.133763 
" clip-path="url(#p12118d7a18)" style="fill: none; stroke: #1f77b4; stroke-width: 0.75"/>
    <path d="M 118.704988 66.446612 
L 121.101887 61.268783 
L 123.919166 56.313187 
L 123.919166 56.313187 
L 126.798617 52.621704 
L 126.798617 52.621704 
L 129.643301 50.230036 
L 132.986694 48.477516 
" clip-path="url(#p12118d7a18)" style="fill: none; stroke: #1f77b4; stroke-width: 0.75"/>
    <path d="M 113.642008 207.084628 
L 109.082625 203.659091 
L 104.877931 199.80856 
L 101.101592 195.538181 
L 97.806241 190.887343 
L 95.001768 185.923628 
" clip-path="url(#p12118d7a18)" style="fill: none; stroke: #1f77b4; stroke-width: 0.75"/>
    <path d="M 225.470418 70.12568 
L 230.450314 71.824444 
L 234.659792 73.928458 
L 238.315397 76.59148 
L 241.614448 80.202993 
L 244.417169 85.135849 
L 246.228772 90.531736 
L 247.284249 96.132677 
L 247.766073 101.815797 
L 247.796557 107.521202 
" clip-path="url(#p12118d7a18)" style="fill: none; stroke: #1f77b4; stroke-width: 0.75"/>
    <path d="M 241.68489 90.256545 
L 243.267974 95.725953 
L 244.131704 101.360084 
L 244.426474 107.055853 
L 244.245995 112.757835 
L 243.638789 118.430762 
L 242.624839 124.045384 
L 241.205738 129.571129 
L 239.374236 134.973908 
L 237.121815 140.214773 
L 234.43893 145.248204 
L 231.32299 150.024969 
L 227.778736 154.492277 
L 223.819293 158.595213 
L 219.468308 162.279407 
L 214.759096 165.492709 
L 209.733965 168.184218 
L 204.444315 170.308178 
L 198.950472 171.824774 
L 193.319018 172.700117 
L 187.624153 172.911917 
L 181.944788 172.447575 
L 176.362357 171.304282 
L 170.959937 169.492866 
L 165.81895 167.036357 
L 161.017369 163.968985 
L 156.627231 160.336571 
L 152.711728 156.19681 
L 149.322277 151.616008 
L 146.497212 146.666304 
L 144.261775 141.423412 
L 142.628541 135.962511 
L 141.601708 130.355236 
L 141.177504 124.67011 
L 141.350277 118.971784 
L 142.114574 113.322184 
L 143.465559 107.783815 
L 145.401135 102.422458 
L 147.920242 97.309797 
L 151.010241 92.521608 
L 154.648696 88.136503 
L 158.791347 84.224296 
L 163.371255 80.832402 
L 168.307365 77.981118 
L 173.515036 75.658356 
L 178.917113 73.828672 
L 184.453274 72.452414 
L 190.076366 71.485464 
L 195.751926 70.896764 
L 201.453696 70.673531 
L 207.15794 70.813889 
L 212.838648 71.339602 
L 218.457564 72.314411 
" clip-path="url(#p12118d7a18)" style="fill: none; stroke: #1f77b4; stroke-width: 0.75"/>
    <path d="M 128.185479 202.596448 
L 123.38897 199.506635 
L 118.822482 196.087021 
L 114.53159 192.328436 
L 110.565128 188.229764 
L 106.969391 183.802584 
L 103.781582 179.073569 
" clip-path="url(#p12118d7a18)" style="fill: none; stroke: #1f77b4; stroke-width: 0.75"/>
    <path d="M 219.00586 76.157623 
L 224.325362 78.18221 
L 229.234116 81.049002 
L 233.234929 84.626483 
L 236.128555 88.526786 
L 238.246984 92.824894 
" clip-path="url(#p12118d7a18)" style="fill: none; stroke: #1f77b4; stroke-width: 0.75"/>
    <path d="M 224.751456 82.97567 
L 228.529441 85.916702 
L 231.847893 89.715886 
L 234.617509 94.643454 
L 236.429118 100.036576 
L 237.408203 105.64794 
L 237.694399 111.341003 
L 237.389208 117.03519 
L 236.5496 122.676138 
L 235.201417 128.217542 
L 233.355131 133.613507 
L 231.01259 138.812607 
L 228.175176 143.758328 
L 224.84855 148.388233 
L 221.046901 152.63558 
L 216.796062 156.432011 
L 212.134277 159.709313 
L 207.112917 162.401684 
L 201.796651 164.449537 
L 196.262427 165.799444 
L 190.599474 166.410429 
L 184.906032 166.256939 
L 179.287464 165.326612 
L 173.852808 163.626577 
L 168.709006 161.183981 
L 163.958362 158.044389 
L 159.693631 154.270657 
L 155.992383 149.942505 
L 152.914412 145.149817 
L 150.501329 139.989635 
L 148.776831 134.559863 
L 147.750864 128.955447 
L 147.422081 123.266886 
L 147.786691 117.580514 
L 148.838377 111.980206 
L 150.569309 106.551637 
L 152.965576 101.383307 
L 156.008852 96.568297 
L 159.659417 92.195834 
L 163.854815 88.342558 
L 168.511087 85.059396 
L 173.531538 82.361558 
L 178.821034 80.235055 
L 184.299303 78.652396 
L 189.900284 77.575565 
L 195.573215 76.981978 
L 201.275794 76.869159 
L 206.965853 77.251814 
L 212.589765 78.18221 
" clip-path="url(#p12118d7a18)" style="fill: none; stroke: #1f77b4; stroke-width: 0.75"/>
    <path d="M 194.255133 201.802946 
L 188.574657 202.331079 
L 182.87069 202.440222 
L 177.174074 202.130736 
L 171.515175 201.40598 
" clip-path="url(#p12118d7a18)" style="fill: none; stroke: #1f77b4; stroke-width: 0.75"/>
    <path d="M 213.149744 82.003659 
L 218.457564 84.050008 
L 223.312188 87.001106 
L 227.12072 90.549152 
L 229.917229 94.461504 
L 231.96051 98.801374 
" clip-path="url(#p12118d7a18)" style="fill: none; stroke: #1f77b4; stroke-width: 0.75"/>
    <path d="M 230.567721 108.653901 
L 230.854491 114.342377 
L 230.403356 120.022795 
L 229.286064 125.611887 
L 227.543397 131.038567 
L 225.198107 136.232877 
L 222.266315 141.119273 
L 218.766998 145.615558 
L 214.730229 149.634997 
L 210.199533 153.086116 
L 205.237749 155.879494 
L 199.927089 157.930553 
L 194.371152 159.167045 
L 188.700537 159.534328 
L 183.074474 159.004709 
L 177.634692 157.588028 
L 172.494989 155.308393 
L 167.775003 152.205658 
L 163.59745 148.343925 
L 160.101191 143.854122 
L 157.36237 138.865626 
L 155.427742 133.512352 
L 154.320807 127.927947 
L 154.045687 122.241345 
L 154.598514 116.574681 
L 155.965871 111.048202 
L 158.128695 105.782445 
L 161.049002 100.896337 
L 164.667919 96.502571 
L 168.898084 92.692711 
L 173.629561 89.523407 
L 178.744424 87.015192 
L 184.132982 85.161258 
L 189.699811 83.936482 
L 195.367771 83.331031 
L 201.067105 83.35607 
L 206.721967 84.050008 
" clip-path="url(#p12118d7a18)" style="fill: none; stroke: #1f77b4; stroke-width: 0.75"/>
    <path d="M 202.0219 87.037795 
L 207.23948 88.002141 
L 212.589765 89.917807 
L 217.446208 92.852374 
L 221.001549 96.243458 
L 223.621723 100.048701 
L 225.480236 104.276071 
L 226.641909 108.956008 
L 227.100867 114.122274 
L 226.788545 119.722047 
L 225.7032 125.313705 
L 223.90352 130.719041 
" clip-path="url(#p12118d7a18)" style="fill: none; stroke: #1f77b4; stroke-width: 0.75"/>
    <path d="M 219.452035 133.232166 
L 216.444323 138.06649 
L 212.754248 142.400219 
L 208.541692 146.035831 
L 203.921152 148.896151 
L 199.007346 150.929145 
L 193.916367 152.098504 
L 188.781055 152.38318 
L 183.711933 151.776709 
L 178.854833 150.29059 
L 174.334354 147.954143 
L 170.278899 144.812213 
L 166.81852 140.938673 
L 164.076222 136.442388 
L 162.153287 131.459804 
L 161.126243 126.169535 
L 161.025988 120.763578 
L 161.851781 115.403079 
L 163.570646 110.273217 
L 166.154212 105.475099 
L 169.576078 101.123969 
L 173.794879 97.332103 
L 178.600652 94.28625 
L 183.827396 92.031714 
L 189.330341 90.571387 
L 194.986369 89.917807 
" clip-path="url(#p12118d7a18)" style="fill: none; stroke: #1f77b4; stroke-width: 0.75"/>
    <path d="M 139.773455 160.461676 
L 136.714422 155.649294 
L 134.122021 150.569981 
L 132.007075 145.273542 
L 130.372593 139.809246 
L 129.21494 134.224253 
L 128.528444 128.561563 
L 128.303874 122.86155 
L 128.531055 117.161562 
L 129.202498 111.49656 
L 130.31291 105.90121 
L 131.863671 100.411803 
L 133.860101 95.068616 
L 136.308384 89.917807 
" clip-path="url(#p12118d7a18)" style="fill: none; stroke: #1f77b4; stroke-width: 0.75"/>
    <path d="M 232.922523 164.584773 
L 228.78313 168.50908 
L 224.325362 172.066987 
L 219.575391 175.224167 
L 214.564152 177.947422 
" clip-path="url(#p12118d7a18)" style="fill: none; stroke: #1f77b4; stroke-width: 0.75"/>
    <path d="M 176.10082 100.427867 
L 180.725543 97.476303 
L 185.844481 95.345948 
L 191.206456 94.106061 
L 196.408204 93.757181 
L 201.271376 94.208942 
L 206.721967 95.785605 
L 206.721967 95.785605 
L 210.728771 97.926253 
L 214.184931 100.879706 
L 216.760985 104.336939 
L 218.537317 108.207079 
L 219.570296 112.466382 
L 219.858532 117.117585 
L 219.342552 122.07307 
L 217.964377 127.171193 
" clip-path="url(#p12118d7a18)" style="fill: none; stroke: #1f77b4; stroke-width: 0.75"/>
    <path d="M 199.757384 184.866002 
L 194.117996 185.714234 
L 188.424572 186.037264 
L 182.725958 185.826602 
L 177.07268 185.080249 
L 171.515175 183.802584 
" clip-path="url(#p12118d7a18)" style="fill: none; stroke: #1f77b4; stroke-width: 0.75"/>
    <path d="M 205.083735 103.377139 
L 208.055228 105.7304 
L 210.448529 108.856073 
L 212.077759 112.733269 
L 212.75227 117.171793 
L 212.387573 121.854861 
L 211.040961 126.415578 
L 208.846635 130.594253 
L 205.956988 134.200546 
L 202.53025 137.107241 
L 198.723272 139.228977 
L 194.694564 140.511803 
L 190.581043 140.9286 
L 186.522141 140.462928 
L 182.6873 139.126601 
L 179.23711 136.959382 
L 176.332537 134.030388 
L 174.133646 130.462285 
L 172.771252 126.427821 
L 172.329297 122.124128 
L 172.839539 117.78308 
L 174.294878 113.585021 
L 176.645455 109.727948 
L 179.809739 106.387202 
L 183.629519 103.740037 
L 187.909016 101.90334 
L 192.335136 100.956503 
L 196.59887 100.868669 
L 200.854168 101.653404 
L 200.854168 101.653404 
L 200.854168 101.653404 
" clip-path="url(#p12118d7a18)" style="fill: none; stroke: #1f77b4; stroke-width: 0.75"/>
    <path d="M 183.024002 132.985206 
L 180.498227 130.503904 
L 178.687871 127.384546 
L 177.741122 123.825755 
L 177.744456 120.061798 
L 178.722549 116.335219 
L 180.627639 112.906252 
L 183.338285 109.994075 
L 186.651694 107.798085 
L 190.294897 106.442102 
L 193.979607 105.957012 
L 197.471942 106.297941 
L 200.854168 107.521202 
L 200.854168 107.521202 
L 200.854168 107.521202 
L 203.634083 109.494883 
L 205.724066 112.136361 
L 206.986172 115.184851 
L 207.452342 118.528885 
L 207.109692 122.069172 
L 205.921178 125.64889 
" clip-path="url(#p12118d7a18)" style="fill: none; stroke: #1f77b4; stroke-width: 0.75"/>
    <path d="M 195.912591 110.5269 
L 198.559256 111.52097 
L 200.854168 113.389001 
L 200.854168 113.389001 
L 200.854168 113.389001 
L 202.398611 115.912948 
L 203.031394 118.66832 
L 202.848327 121.603466 
L 201.835536 124.548724 
L 199.990103 127.275349 
L 197.417657 129.462696 
L 194.332469 130.838643 
L 191.075488 131.215766 
L 187.999404 130.580182 
" clip-path="url(#p12118d7a18)" style="fill: none; stroke: #1f77b4; stroke-width: 0.75"/>
    <path d="M 168.882104 138.283564 
L 166.425159 133.924985 
L 164.808867 129.117476 
L 164.101824 124.053867 
L 164.327987 118.914375 
L 165.647377 113.389001 
" clip-path="url(#p12118d7a18)" style="fill: none; stroke: #1f77b4; stroke-width: 0.75"/>
    <path d="M 193.524649 116.545083 
L 195.224329 117.192637 
L 196.440977 118.704602 
L 196.69181 120.778093 
L 195.908224 122.74104 
L 194.437386 124.114172 
L 192.632176 124.716369 
L 190.836803 124.469965 
L 189.362941 123.352609 
L 188.650107 121.488943 
L 189.118571 119.2568 
L 189.118571 119.2568 
L 189.118571 119.2568 
L 190.687028 117.448419 
" clip-path="url(#p12118d7a18)" style="fill: none; stroke: #1f77b4; stroke-width: 0.75"/>
    <path d="M 204.023672 142.420145 
L 199.674585 144.642226 
L 195.120704 146.010847 
L 190.474941 146.508029 
L 185.875197 146.117997 
L 181.467736 144.851151 
L 177.382974 142.727994 
L 177.382974 142.727994 
L 177.382974 142.727994 
" clip-path="url(#p12118d7a18)" style="fill: none; stroke: #1f77b4; stroke-width: 0.75"/>
   </g>
   <g id="patch_3">
    <path d="M 176.368561 37.107619 
Q 176.796473 37.107619 176.385859 37.107619 
" clip-path="url(#p12118d7a18)" style="fill: none; stroke: #1f77b4; stroke-width: 0.75; stroke-linecap: round"/>
    <path d="M 173.785859 35.807619 
L 176.385859 37.107619 
L 173.785859 38.407619 
z
" clip-path="url(#p12118d7a18)" style="fill: #1f77b4; stroke: #1f77b4; stroke-width: 0.75; stroke-linecap: round"/>
   </g>
   <g id="patch_4">
    <path d="M 101.221094 247.61798 
Q 100.793599 247.599347 101.203835 247.617228 
" clip-path="url(#p12118d7a18)" style="fill: none; stroke: #1f77b4; stroke-width: 0.75; stroke-linecap: round"/>
    <path d="M 103.744758 249.029215 
L 101.203835 247.617228 
L 103.857978 246.431681 
z
" clip-path="url(#p12118d7a18)" style="fill: #1f77b4; stroke: #1f77b4; stroke-width: 0.75; stroke-linecap: round"/>
   </g>
   <g id="patch_5">
    <path d="M 75.480703 221.145227 
Q 75.423243 220.856078 75.52922 221.389373 
" clip-path="url(#p12118d7a18)" style="fill: none; stroke: #1f77b4; stroke-width: 0.75; stroke-linecap: round"/>
    <path d="M 74.760915 224.19289 
L 75.52922 221.389373 
L 77.311051 223.686127 
z
" clip-path="url(#p12118d7a18)" style="fill: #1f77b4; stroke: #1f77b4; stroke-width: 0.75; stroke-linecap: round"/>
   </g>
   <g id="patch_6">
    <path d="M 241.520139 211.955225 
Q 241.199418 212.238458 241.507217 211.966636 
" clip-path="url(#p12118d7a18)" style="fill: none; stroke: #1f77b4; stroke-width: 0.75; stroke-linecap: round"/>
    <path d="M 244.316584 211.220007 
L 241.507217 211.966636 
L 242.595534 209.271165 
z
" clip-path="url(#p12118d7a18)" style="fill: #1f77b4; stroke: #1f77b4; stroke-width: 0.75; stroke-linecap: round"/>
   </g>
   <g id="patch_7">
    <path d="M 179.763917 247.662087 
Q 179.336051 247.668036 179.746629 247.662328 
" clip-path="url(#p12118d7a18)" style="fill: none; stroke: #1f77b4; stroke-width: 0.75; stroke-linecap: round"/>
    <path d="M 182.364451 248.926057 
L 179.746629 247.662328 
L 182.328305 246.326308 
z
" clip-path="url(#p12118d7a18)" style="fill: #1f77b4; stroke: #1f77b4; stroke-width: 0.75; stroke-linecap: round"/>
   </g>
   <g id="patch_8">
    <path d="M 275.34081 237.586389 
Q 275.73334 236.857323 275.72836 236.866574 
" clip-path="url(#p12118d7a18)" style="fill: none; stroke: #1f77b4; stroke-width: 0.75; stroke-linecap: round"/>
    <path d="M 273.351165 238.539579 
L 275.72836 236.866574 
L 275.640447 239.772132 
z
" clip-path="url(#p12118d7a18)" style="fill: #1f77b4; stroke: #1f77b4; stroke-width: 0.75; stroke-linecap: round"/>
   </g>
   <g id="patch_9">
    <path d="M 277.325572 193.864519 
Q 277.311113 193.43704 277.325 193.847607 
" clip-path="url(#p12118d7a18)" style="fill: none; stroke: #1f77b4; stroke-width: 0.75; stroke-linecap: round"/>
    <path d="M 276.113637 196.490068 
L 277.325 193.847607 
L 278.712151 196.402174 
z
" clip-path="url(#p12118d7a18)" style="fill: #1f77b4; stroke: #1f77b4; stroke-width: 0.75; stroke-linecap: round"/>
   </g>
   <g id="patch_10">
    <path d="M 279.324565 139.505939 
Q 279.280298 139.931446 279.322798 139.522929 
" clip-path="url(#p12118d7a18)" style="fill: none; stroke: #1f77b4; stroke-width: 0.75; stroke-linecap: round"/>
    <path d="M 280.884856 137.071404 
L 279.322798 139.522929 
L 278.298812 136.802368 
z
" clip-path="url(#p12118d7a18)" style="fill: #1f77b4; stroke: #1f77b4; stroke-width: 0.75; stroke-linecap: round"/>
   </g>
   <g id="patch_11">
    <path d="M 279.639578 81.529834 
Q 279.622966 81.957419 279.638907 81.54711 
" clip-path="url(#p12118d7a18)" style="fill: none; stroke: #1f77b4; stroke-width: 0.75; stroke-linecap: round"/>
    <path d="M 281.038866 78.999539 
L 279.638907 81.54711 
L 278.440826 78.8986 
z
" clip-path="url(#p12118d7a18)" style="fill: #1f77b4; stroke: #1f77b4; stroke-width: 0.75; stroke-linecap: round"/>
   </g>
   <g id="patch_12">
    <path d="M 278.261174 51.360087 
Q 278.228397 51.786722 278.259852 51.377295 
" clip-path="url(#p12118d7a18)" style="fill: none; stroke: #1f77b4; stroke-width: 0.75; stroke-linecap: round"/>
    <path d="M 279.755194 48.884515 
L 278.259852 51.377295 
L 277.162833 48.685354 
z
" clip-path="url(#p12118d7a18)" style="fill: #1f77b4; stroke: #1f77b4; stroke-width: 0.75; stroke-linecap: round"/>
   </g>
   <g id="patch_13">
    <path d="M 104.014086 110.977787 
Q 104.050075 110.551489 104.015524 110.960745 
" clip-path="url(#p12118d7a18)" style="fill: none; stroke: #1f77b4; stroke-width: 0.75; stroke-linecap: round"/>
    <path d="M 102.501411 113.442168 
L 104.015524 110.960745 
L 105.092195 113.660889 
z
" clip-path="url(#p12118d7a18)" style="fill: #1f77b4; stroke: #1f77b4; stroke-width: 0.75; stroke-linecap: round"/>
   </g>
   <g id="patch_14">
    <path d="M 109.985348 52.837975 
Q 110.005581 52.142865 110.001417 52.285925 
" clip-path="url(#p12118d7a18)" style="fill: none; stroke: #1f77b4; stroke-width: 0.75; stroke-linecap: round"/>
    <path d="M 108.62632 54.847001 
L 110.001417 52.285925 
L 111.225219 54.922648 
z
" clip-path="url(#p12118d7a18)" style="fill: #1f77b4; stroke: #1f77b4; stroke-width: 0.75; stroke-linecap: round"/>
   </g>
   <g id="patch_15">
    <path d="M 108.71193 174.509275 
Q 108.491399 174.146253 108.706224 174.499882 
" clip-path="url(#p12118d7a18)" style="fill: none; stroke: #1f77b4; stroke-width: 0.75; stroke-linecap: round"/>
    <path d="M 108.945071 177.396942 
L 108.706224 174.499882 
L 111.16718 176.047041 
z
" clip-path="url(#p12118d7a18)" style="fill: #1f77b4; stroke: #1f77b4; stroke-width: 0.75; stroke-linecap: round"/>
   </g>
   <g id="patch_16">
    <path d="M 96.077916 63.304832 
Q 96.047834 62.988459 96.097124 63.506846 
" clip-path="url(#p12118d7a18)" style="fill: none; stroke: #1f77b4; stroke-width: 0.75; stroke-linecap: round"/>
    <path d="M 95.049069 66.218225 
L 96.097124 63.506846 
L 97.637395 65.972118 
z
" clip-path="url(#p12118d7a18)" style="fill: #1f77b4; stroke: #1f77b4; stroke-width: 0.75; stroke-linecap: round"/>
   </g>
   <g id="patch_17">
    <path d="M 123.13557 217.658977 
Q 122.743286 217.488578 123.120102 217.652258 
" clip-path="url(#p12118d7a18)" style="fill: none; stroke: #1f77b4; stroke-width: 0.75; stroke-linecap: round"/>
    <path d="M 124.986905 219.880497 
L 123.120102 217.652258 
L 126.022775 217.49576 
z
" clip-path="url(#p12118d7a18)" style="fill: #1f77b4; stroke: #1f77b4; stroke-width: 0.75; stroke-linecap: round"/>
   </g>
   <g id="patch_18">
    <path d="M 88.869901 205.214847 
Q 88.676234 204.837236 88.865232 205.205743 
" clip-path="url(#p12118d7a18)" style="fill: none; stroke: #1f77b4; stroke-width: 0.75; stroke-linecap: round"/>
    <path d="M 88.895012 208.112479 
L 88.865232 205.205743 
L 91.208488 206.925961 
z
" clip-path="url(#p12118d7a18)" style="fill: #1f77b4; stroke: #1f77b4; stroke-width: 0.75; stroke-linecap: round"/>
   </g>
   <g id="patch_19">
    <path d="M 93.907337 223.16346 
Q 93.596907 222.880662 93.90635 223.162561 
" clip-path="url(#p12118d7a18)" style="fill: none; stroke: #1f77b4; stroke-width: 0.75; stroke-linecap: round"/>
    <path d="M 94.952907 225.874519 
L 93.90635 223.162561 
L 96.703851 223.95249 
z
" clip-path="url(#p12118d7a18)" style="fill: #1f77b4; stroke: #1f77b4; stroke-width: 0.75; stroke-linecap: round"/>
   </g>
   <g id="patch_20">
    <path d="M 87.187454 225.7119 
Q 86.921758 225.386202 87.186111 225.710253 
" clip-path="url(#p12118d7a18)" style="fill: none; stroke: #1f77b4; stroke-width: 0.75; stroke-linecap: round"/>
    <path d="M 87.822294 228.546671 
L 87.186111 225.710253 
L 89.836956 226.903157 
z
" clip-path="url(#p12118d7a18)" style="fill: #1f77b4; stroke: #1f77b4; stroke-width: 0.75; stroke-linecap: round"/>
   </g>
   <g id="patch_21">
    <path d="M 254.666492 237.26065 
Q 255.076353 237.151923 254.675721 237.258202 
" clip-path="url(#p12118d7a18)" style="fill: none; stroke: #1f77b4; stroke-width: 0.75; stroke-linecap: round"/>
    <path d="M 251.829311 236.668329 
L 254.675721 237.258202 
L 252.495977 239.181406 
z
" clip-path="url(#p12118d7a18)" style="fill: #1f77b4; stroke: #1f77b4; stroke-width: 0.75; stroke-linecap: round"/>
   </g>
   <g id="patch_22">
    <path d="M 263.993711 196.335135 
Q 263.299642 196.87096 263.269316 196.894371 
" clip-path="url(#p12118d7a18)" style="fill: none; stroke: #1f77b4; stroke-width: 0.75; stroke-linecap: round"/>
    <path d="M 266.121793 196.334568 
L 263.269316 196.894371 
L 264.532959 194.276508 
z
" clip-path="url(#p12118d7a18)" style="fill: #1f77b4; stroke: #1f77b4; stroke-width: 0.75; stroke-linecap: round"/>
   </g>
   <g id="patch_23">
    <path d="M 272.920259 127.589438 
Q 272.853347 128.012024 272.917573 127.606402 
" clip-path="url(#p12118d7a18)" style="fill: none; stroke: #1f77b4; stroke-width: 0.75; stroke-linecap: round"/>
    <path d="M 274.608189 125.241699 
L 272.917573 127.606402 
L 272.040181 124.835087 
z
" clip-path="url(#p12118d7a18)" style="fill: #1f77b4; stroke: #1f77b4; stroke-width: 0.75; stroke-linecap: round"/>
   </g>
   <g id="patch_24">
    <path d="M 272.839298 98.343225 
Q 272.800455 98.769363 272.837728 98.360439 
" clip-path="url(#p12118d7a18)" style="fill: none; stroke: #1f77b4; stroke-width: 0.75; stroke-linecap: round"/>
    <path d="M 274.368375 95.88918 
L 272.837728 98.360439 
L 271.779109 95.653166 
z
" clip-path="url(#p12118d7a18)" style="fill: #1f77b4; stroke: #1f77b4; stroke-width: 0.75; stroke-linecap: round"/>
   </g>
   <g id="patch_25">
    <path d="M 272.266693 57.395129 
Q 272.277563 57.819503 272.266962 57.405627 
" clip-path="url(#p12118d7a18)" style="fill: none; stroke: #1f77b4; stroke-width: 0.75; stroke-linecap: round"/>
    <path d="M 273.499963 54.773193 
L 272.266962 57.405627 
L 270.900815 54.839766 
z
" clip-path="url(#p12118d7a18)" style="fill: #1f77b4; stroke: #1f77b4; stroke-width: 0.75; stroke-linecap: round"/>
   </g>
   <g id="patch_26">
    <path d="M 117.803395 140.725955 
Q 117.713175 140.307949 117.799864 140.709594 
" clip-path="url(#p12118d7a18)" style="fill: none; stroke: #1f77b4; stroke-width: 0.75; stroke-linecap: round"/>
    <path d="M 117.077667 143.525341 
L 117.799864 140.709594 
L 119.619144 142.9768 
z
" clip-path="url(#p12118d7a18)" style="fill: #1f77b4; stroke: #1f77b4; stroke-width: 0.75; stroke-linecap: round"/>
   </g>
   <g id="patch_27">
    <path d="M 150.627378 50.97898 
Q 151.035625 50.862473 150.63754 50.97608 
" clip-path="url(#p12118d7a18)" style="fill: none; stroke: #1f77b4; stroke-width: 0.75; stroke-linecap: round"/>
    <path d="M 147.780604 50.439501 
L 150.63754 50.97608 
L 148.494115 52.939681 
z
" clip-path="url(#p12118d7a18)" style="fill: #1f77b4; stroke: #1f77b4; stroke-width: 0.75; stroke-linecap: round"/>
   </g>
   <g id="patch_28">
    <path d="M 109.992631 130.869795 
Q 109.955079 130.443729 109.991147 130.85295 
" clip-path="url(#p12118d7a18)" style="fill: none; stroke: #1f77b4; stroke-width: 0.75; stroke-linecap: round"/>
    <path d="M 108.924441 133.557047 
L 109.991147 130.85295 
L 111.5144 133.328773 
z
" clip-path="url(#p12118d7a18)" style="fill: #1f77b4; stroke: #1f77b4; stroke-width: 0.75; stroke-linecap: round"/>
   </g>
   <g id="patch_29">
    <path d="M 168.787192 232.52994 
Q 168.359521 232.518614 168.770082 232.529487 
" clip-path="url(#p12118d7a18)" style="fill: none; stroke: #1f77b4; stroke-width: 0.75; stroke-linecap: round"/>
    <path d="M 171.334754 233.897864 
L 168.770082 232.529487 
L 171.403587 231.298775 
z
" clip-path="url(#p12118d7a18)" style="fill: #1f77b4; stroke: #1f77b4; stroke-width: 0.75; stroke-linecap: round"/>
   </g>
   <g id="patch_30">
    <path d="M 248.568642 232.919138 
Q 248.788222 232.884647 248.179433 232.980273 
" clip-path="url(#p12118d7a18)" style="fill: none; stroke: #1f77b4; stroke-width: 0.75; stroke-linecap: round"/>
    <path d="M 245.409201 232.09947 
L 248.179433 232.980273 
L 245.812651 234.667977 
z
" clip-path="url(#p12118d7a18)" style="fill: #1f77b4; stroke: #1f77b4; stroke-width: 0.75; stroke-linecap: round"/>
   </g>
   <g id="patch_31">
    <path d="M 253.670007 176.259013 
Q 253.416477 176.603468 253.660006 176.272602 
" clip-path="url(#p12118d7a18)" style="fill: none; stroke: #1f77b4; stroke-width: 0.75; stroke-linecap: round"/>
    <path d="M 256.248204 174.949261 
L 253.660006 176.272602 
L 254.154252 173.408039 
z
" clip-path="url(#p12118d7a18)" style="fill: #1f77b4; stroke: #1f77b4; stroke-width: 0.75; stroke-linecap: round"/>
   </g>
   <g id="patch_32">
    <path d="M 261.189121 149.586017 
Q 261.028376 149.982403 261.18275 149.601728 
" clip-path="url(#p12118d7a18)" style="fill: none; stroke: #1f77b4; stroke-width: 0.75; stroke-linecap: round"/>
    <path d="M 263.364544 147.680849 
L 261.18275 149.601728 
L 260.955123 146.703766 
z
" clip-path="url(#p12118d7a18)" style="fill: #1f77b4; stroke: #1f77b4; stroke-width: 0.75; stroke-linecap: round"/>
   </g>
   <g id="patch_33">
    <path d="M 267.038907 92.482629 
Q 266.998591 92.908631 267.037278 92.499837 
" clip-path="url(#p12118d7a18)" style="fill: none; stroke: #1f77b4; stroke-width: 0.75; stroke-linecap: round"/>
    <path d="M 268.576457 90.033883 
L 267.037278 92.499837 
L 265.988023 89.788921 
z
" clip-path="url(#p12118d7a18)" style="fill: #1f77b4; stroke: #1f77b4; stroke-width: 0.75; stroke-linecap: round"/>
   </g>
   <g id="patch_34">
    <path d="M 262.821128 57.948848 
Q 263.162665 58.716217 263.163241 58.717512 
" clip-path="url(#p12118d7a18)" style="fill: none; stroke: #1f77b4; stroke-width: 0.75; stroke-linecap: round"/>
    <path d="M 263.293708 55.813553 
L 263.163241 58.717512 
L 260.918354 56.870764 
z
" clip-path="url(#p12118d7a18)" style="fill: #1f77b4; stroke: #1f77b4; stroke-width: 0.75; stroke-linecap: round"/>
   </g>
   <g id="patch_35">
    <path d="M 125.23992 111.484343 
Q 125.304102 111.061566 125.242429 111.467815 
" clip-path="url(#p12118d7a18)" style="fill: none; stroke: #1f77b4; stroke-width: 0.75; stroke-linecap: round"/>
    <path d="M 123.566919 113.843245 
L 125.242429 111.467815 
L 126.137467 114.233481 
z
" clip-path="url(#p12118d7a18)" style="fill: #1f77b4; stroke: #1f77b4; stroke-width: 0.75; stroke-linecap: round"/>
   </g>
   <g id="patch_36">
    <path d="M 105.755223 191.087018 
Q 105.48711 190.757747 105.748455 191.078707 
" clip-path="url(#p12118d7a18)" style="fill: none; stroke: #1f77b4; stroke-width: 0.75; stroke-linecap: round"/>
    <path d="M 106.382056 193.915704 
L 105.748455 191.078707 
L 108.398213 192.274025 
z
" clip-path="url(#p12118d7a18)" style="fill: #1f77b4; stroke: #1f77b4; stroke-width: 0.75; stroke-linecap: round"/>
   </g>
   <g id="patch_37">
    <path d="M 256.287711 209.56472 
Q 255.940655 209.793669 256.29354 209.560875 
" clip-path="url(#p12118d7a18)" style="fill: none; stroke: #1f77b4; stroke-width: 0.75; stroke-linecap: round"/>
    <path d="M 259.179696 209.214309 
L 256.29354 209.560875 
L 257.747981 207.044011 
z
" clip-path="url(#p12118d7a18)" style="fill: #1f77b4; stroke: #1f77b4; stroke-width: 0.75; stroke-linecap: round"/>
   </g>
   <g id="patch_38">
    <path d="M 250.594691 199.661747 
Q 250.291469 199.963555 250.582557 199.673824 
" clip-path="url(#p12118d7a18)" style="fill: none; stroke: #1f77b4; stroke-width: 0.75; stroke-linecap: round"/>
    <path d="M 253.342415 198.761033 
L 250.582557 199.673824 
L 251.508239 196.918263 
z
" clip-path="url(#p12118d7a18)" style="fill: #1f77b4; stroke: #1f77b4; stroke-width: 0.75; stroke-linecap: round"/>
   </g>
   <g id="patch_39">
    <path d="M 261.025305 109.958358 
Q 260.964988 110.381959 261.022877 109.975407 
" clip-path="url(#p12118d7a18)" style="fill: none; stroke: #1f77b4; stroke-width: 0.75; stroke-linecap: round"/>
    <path d="M 262.676414 107.58463 
L 261.022877 109.975407 
L 260.102378 107.218111 
z
" clip-path="url(#p12118d7a18)" style="fill: #1f77b4; stroke: #1f77b4; stroke-width: 0.75; stroke-linecap: round"/>
   </g>
   <g id="patch_40">
    <path d="M 257.763853 69.486855 
Q 257.881723 69.88982 257.764182 69.487982 
" clip-path="url(#p12118d7a18)" style="fill: none; stroke: #1f77b4; stroke-width: 0.75; stroke-linecap: round"/>
    <path d="M 258.281968 66.62758 
L 257.764182 69.487982 
L 255.786532 67.357512 
z
" clip-path="url(#p12118d7a18)" style="fill: #1f77b4; stroke: #1f77b4; stroke-width: 0.75; stroke-linecap: round"/>
   </g>
   <g id="patch_41">
    <path d="M 192.520342 59.731088 
Q 192.946125 59.6892 192.537411 59.729409 
" clip-path="url(#p12118d7a18)" style="fill: none; stroke: #1f77b4; stroke-width: 0.75; stroke-linecap: round"/>
    <path d="M 189.822622 58.690215 
L 192.537411 59.729409 
L 190.077182 61.277723 
z
" clip-path="url(#p12118d7a18)" style="fill: #1f77b4; stroke: #1f77b4; stroke-width: 0.75; stroke-linecap: round"/>
   </g>
   <g id="patch_42">
    <path d="M 140.527581 66.188879 
Q 140.847789 65.910489 140.535191 66.182263 
" clip-path="url(#p12118d7a18)" style="fill: none; stroke: #1f77b4; stroke-width: 0.75; stroke-linecap: round"/>
    <path d="M 137.720118 66.907082 
L 140.535191 66.182263 
L 139.426003 68.869213 
z
" clip-path="url(#p12118d7a18)" style="fill: #1f77b4; stroke: #1f77b4; stroke-width: 0.75; stroke-linecap: round"/>
   </g>
   <g id="patch_43">
    <path d="M 97.384805 157.758433 
Q 97.272454 157.345754 97.380373 157.742153 
" clip-path="url(#p12118d7a18)" style="fill: none; stroke: #1f77b4; stroke-width: 0.75; stroke-linecap: round"/>
    <path d="M 96.809012 160.592336 
L 97.380373 157.742153 
L 99.317703 159.909352 
z
" clip-path="url(#p12118d7a18)" style="fill: #1f77b4; stroke: #1f77b4; stroke-width: 0.75; stroke-linecap: round"/>
   </g>
   <g id="patch_44">
    <path d="M 106.535817 217.165059 
Q 106.180501 216.93286 106.527116 217.159373 
" clip-path="url(#p12118d7a18)" style="fill: none; stroke: #1f77b4; stroke-width: 0.75; stroke-linecap: round"/>
    <path d="M 107.992421 219.669927 
L 106.527116 217.159373 
L 109.414742 217.493462 
z
" clip-path="url(#p12118d7a18)" style="fill: #1f77b4; stroke: #1f77b4; stroke-width: 0.75; stroke-linecap: round"/>
   </g>
   <g id="patch_45">
    <path d="M 134.856646 216.606683 
Q 134.455306 216.458656 134.840685 216.600796 
" clip-path="url(#p12118d7a18)" style="fill: none; stroke: #1f77b4; stroke-width: 0.75; stroke-linecap: round"/>
    <path d="M 136.830195 218.720195 
L 134.840685 216.600796 
L 137.72991 216.280827 
z
" clip-path="url(#p12118d7a18)" style="fill: #1f77b4; stroke: #1f77b4; stroke-width: 0.75; stroke-linecap: round"/>
   </g>
   <g id="patch_46">
    <path d="M 245.566757 154.134265 
Q 245.340503 154.497131 245.557909 154.148455 
" clip-path="url(#p12118d7a18)" style="fill: none; stroke: #1f77b4; stroke-width: 0.75; stroke-linecap: round"/>
    <path d="M 248.036685 152.630013 
L 245.557909 154.148455 
L 245.830421 151.254369 
z
" clip-path="url(#p12118d7a18)" style="fill: #1f77b4; stroke: #1f77b4; stroke-width: 0.75; stroke-linecap: round"/>
   </g>
   <g id="patch_47">
    <path d="M 255.831773 92.848429 
Q 255.83662 93.276155 255.831965 92.865408 
" clip-path="url(#p12118d7a18)" style="fill: none; stroke: #1f77b4; stroke-width: 0.75; stroke-linecap: round"/>
    <path d="M 257.102421 90.250845 
L 255.831965 92.865408 
L 254.502588 90.280305 
z
" clip-path="url(#p12118d7a18)" style="fill: #1f77b4; stroke: #1f77b4; stroke-width: 0.75; stroke-linecap: round"/>
   </g>
   <g id="patch_48">
    <path d="M 135.509573 134.21809 
Q 135.440671 133.79909 135.507832 134.207502 
" clip-path="url(#p12118d7a18)" style="fill: none; stroke: #1f77b4; stroke-width: 0.75; stroke-linecap: round"/>
    <path d="M 134.646947 136.983989 
L 135.507832 134.207502 
L 137.21249 136.562102 
z
" clip-path="url(#p12118d7a18)" style="fill: #1f77b4; stroke: #1f77b4; stroke-width: 0.75; stroke-linecap: round"/>
   </g>
   <g id="patch_49">
    <path d="M 125.147994 54.737818 
Q 125.253443 54.602632 124.843161 55.128617 
" clip-path="url(#p12118d7a18)" style="fill: none; stroke: #1f77b4; stroke-width: 0.75; stroke-linecap: round"/>
    <path d="M 122.219006 56.37914 
L 124.843161 55.128617 
L 124.269086 57.978255 
z
" clip-path="url(#p12118d7a18)" style="fill: #1f77b4; stroke: #1f77b4; stroke-width: 0.75; stroke-linecap: round"/>
   </g>
   <g id="patch_50">
    <path d="M 103.552156 198.30934 
Q 103.270959 197.991355 103.545239 198.301518 
" clip-path="url(#p12118d7a18)" style="fill: none; stroke: #1f77b4; stroke-width: 0.75; stroke-linecap: round"/>
    <path d="M 104.293755 201.110384 
L 103.545239 198.301518 
L 106.241441 199.388025 
z
" clip-path="url(#p12118d7a18)" style="fill: #1f77b4; stroke: #1f77b4; stroke-width: 0.75; stroke-linecap: round"/>
   </g>
   <g id="patch_51">
    <path d="M 242.601148 81.939609 
Q 242.808478 82.304515 242.601573 81.940357 
" clip-path="url(#p12118d7a18)" style="fill: none; stroke: #1f77b4; stroke-width: 0.75; stroke-linecap: round"/>
    <path d="M 242.447459 79.037557 
L 242.601573 81.940357 
L 240.186864 80.321969 
z
" clip-path="url(#p12118d7a18)" style="fill: #1f77b4; stroke: #1f77b4; stroke-width: 0.75; stroke-linecap: round"/>
   </g>
   <g id="patch_52">
    <path d="M 155.252599 158.883208 
Q 154.961039 158.574949 155.245676 158.875889 
" clip-path="url(#p12118d7a18)" style="fill: none; stroke: #1f77b4; stroke-width: 0.75; stroke-linecap: round"/>
    <path d="M 156.087814 161.658118 
L 155.245676 158.875889 
L 157.976743 159.871516 
z
" clip-path="url(#p12118d7a18)" style="fill: #1f77b4; stroke: #1f77b4; stroke-width: 0.75; stroke-linecap: round"/>
   </g>
   <g id="patch_53">
    <path d="M 117.316061 194.767479 
Q 116.996548 194.487604 117.307795 194.760239 
" clip-path="url(#p12118d7a18)" style="fill: none; stroke: #1f77b4; stroke-width: 0.75; stroke-linecap: round"/>
    <path d="M 118.407 197.451289 
L 117.307795 194.760239 
L 120.120158 195.495505 
z
" clip-path="url(#p12118d7a18)" style="fill: #1f77b4; stroke: #1f77b4; stroke-width: 0.75; stroke-linecap: round"/>
   </g>
   <g id="patch_54">
    <path d="M 230.724653 82.381824 
Q 230.979588 82.609783 230.609448 82.278809 
" clip-path="url(#p12118d7a18)" style="fill: none; stroke: #1f77b4; stroke-width: 0.75; stroke-linecap: round"/>
    <path d="M 229.537831 79.576655 
L 230.609448 82.278809 
L 227.804755 81.51481 
z
" clip-path="url(#p12118d7a18)" style="fill: #1f77b4; stroke: #1f77b4; stroke-width: 0.75; stroke-linecap: round"/>
   </g>
   <g id="patch_55">
    <path d="M 167.041178 160.081751 
Q 166.687431 159.847968 167.033243 160.076507 
" clip-path="url(#p12118d7a18)" style="fill: none; stroke: #1f77b4; stroke-width: 0.75; stroke-linecap: round"/>
    <path d="M 168.485596 162.594577 
L 167.033243 160.076507 
L 169.91911 160.425467 
z
" clip-path="url(#p12118d7a18)" style="fill: #1f77b4; stroke: #1f77b4; stroke-width: 0.75; stroke-linecap: round"/>
   </g>
   <g id="patch_56">
    <path d="M 180.876318 202.331872 
Q 180.44935 202.308675 180.859673 202.330967 
" clip-path="url(#p12118d7a18)" style="fill: none; stroke: #1f77b4; stroke-width: 0.75; stroke-linecap: round"/>
    <path d="M 183.385322 203.770098 
L 180.859673 202.330967 
L 183.526367 201.173926 
z
" clip-path="url(#p12118d7a18)" style="fill: #1f77b4; stroke: #1f77b4; stroke-width: 0.75; stroke-linecap: round"/>
   </g>
   <g id="patch_57">
    <path d="M 224.775721 88.364539 
Q 224.996087 88.569834 224.602917 88.203555 
" clip-path="url(#p12118d7a18)" style="fill: none; stroke: #1f77b4; stroke-width: 0.75; stroke-linecap: round"/>
    <path d="M 223.586668 85.480094 
L 224.602917 88.203555 
L 221.814399 87.382477 
z
" clip-path="url(#p12118d7a18)" style="fill: #1f77b4; stroke: #1f77b4; stroke-width: 0.75; stroke-linecap: round"/>
   </g>
   <g id="patch_58">
    <path d="M 162.370003 146.767671 
Q 162.109662 146.433347 162.36451 146.760616 
" clip-path="url(#p12118d7a18)" style="fill: none; stroke: #1f77b4; stroke-width: 0.75; stroke-linecap: round"/>
    <path d="M 162.936254 149.610723 
L 162.36451 146.760616 
L 164.987642 148.013285 
z
" clip-path="url(#p12118d7a18)" style="fill: #1f77b4; stroke: #1f77b4; stroke-width: 0.75; stroke-linecap: round"/>
   </g>
   <g id="patch_59">
    <path d="M 224.425748 101.877534 
Q 224.488364 102.01996 224.213506 101.394768 
" clip-path="url(#p12118d7a18)" style="fill: none; stroke: #1f77b4; stroke-width: 0.75; stroke-linecap: round"/>
    <path d="M 224.357176 98.491432 
L 224.213506 101.394768 
L 221.977039 99.537831 
z
" clip-path="url(#p12118d7a18)" style="fill: #1f77b4; stroke: #1f77b4; stroke-width: 0.75; stroke-linecap: round"/>
   </g>
   <g id="patch_60">
    <path d="M 165.778107 139.232807 
Q 165.612739 138.961669 165.88399 139.406413 
" clip-path="url(#p12118d7a18)" style="fill: none; stroke: #1f77b4; stroke-width: 0.75; stroke-linecap: round"/>
    <path d="M 166.127944 142.303047 
L 165.88399 139.406413 
L 168.34767 140.94923 
z
" clip-path="url(#p12118d7a18)" style="fill: #1f77b4; stroke: #1f77b4; stroke-width: 0.75; stroke-linecap: round"/>
   </g>
   <g id="patch_61">
    <path d="M 128.449603 126.560435 
Q 128.432881 126.135996 128.44917 126.549432 
" clip-path="url(#p12118d7a18)" style="fill: none; stroke: #1f77b4; stroke-width: 0.75; stroke-linecap: round"/>
    <path d="M 127.252533 129.198594 
L 128.44917 126.549432 
L 129.850517 129.096238 
z
" clip-path="url(#p12118d7a18)" style="fill: #1f77b4; stroke: #1f77b4; stroke-width: 0.75; stroke-linecap: round"/>
   </g>
   <g id="patch_62">
    <path d="M 227.218123 169.758169 
Q 226.886184 170.023101 227.20962 169.764956 
" clip-path="url(#p12118d7a18)" style="fill: none; stroke: #1f77b4; stroke-width: 0.75; stroke-linecap: round"/>
    <path d="M 230.052673 169.159111 
L 227.20962 169.764956 
L 228.430776 167.127006 
z
" clip-path="url(#p12118d7a18)" style="fill: #1f77b4; stroke: #1f77b4; stroke-width: 0.75; stroke-linecap: round"/>
   </g>
   <g id="patch_63">
    <path d="M 208.486682 96.72841 
Q 208.606025 96.792169 207.985776 96.460799 
" clip-path="url(#p12118d7a18)" style="fill: none; stroke: #1f77b4; stroke-width: 0.75; stroke-linecap: round"/>
    <path d="M 206.30512 94.089007 
L 207.985776 96.460799 
L 205.079949 96.382249 
z
" clip-path="url(#p12118d7a18)" style="fill: #1f77b4; stroke: #1f77b4; stroke-width: 0.75; stroke-linecap: round"/>
   </g>
   <g id="patch_64">
    <path d="M 186.423935 185.963306 
Q 185.9996 185.947619 186.413218 185.96291 
" clip-path="url(#p12118d7a18)" style="fill: none; stroke: #1f77b4; stroke-width: 0.75; stroke-linecap: round"/>
    <path d="M 188.963418 187.358072 
L 186.413218 185.96291 
L 189.059468 184.759847 
z
" clip-path="url(#p12118d7a18)" style="fill: #1f77b4; stroke: #1f77b4; stroke-width: 0.75; stroke-linecap: round"/>
   </g>
   <g id="patch_65">
    <path d="M 180.992529 138.062039 
Q 180.977367 138.052515 181.672268 138.489014 
" clip-path="url(#p12118d7a18)" style="fill: none; stroke: #1f77b4; stroke-width: 0.75; stroke-linecap: round"/>
    <path d="M 183.18246 140.972825 
L 181.672268 138.489014 
L 184.565432 138.771147 
z
" clip-path="url(#p12118d7a18)" style="fill: #1f77b4; stroke: #1f77b4; stroke-width: 0.75; stroke-linecap: round"/>
   </g>
   <g id="patch_66">
    <path d="M 186.651694 107.798085 
Q 187.562495 107.459089 187.687437 107.412586 
" clip-path="url(#p12118d7a18)" style="fill: none; stroke: #1f77b4; stroke-width: 0.75; stroke-linecap: round"/>
    <path d="M 184.797279 107.101165 
L 187.687437 107.412586 
L 185.704206 109.537861 
z
" clip-path="url(#p12118d7a18)" style="fill: #1f77b4; stroke: #1f77b4; stroke-width: 0.75; stroke-linecap: round"/>
   </g>
   <g id="patch_67">
    <path d="M 202.848327 121.603466 
Q 202.595129 122.339781 202.614606 122.283143 
" clip-path="url(#p12118d7a18)" style="fill: none; stroke: #1f77b4; stroke-width: 0.75; stroke-linecap: round"/>
    <path d="M 204.689427 120.247187 
L 202.614606 122.283143 
L 202.230734 119.401712 
z
" clip-path="url(#p12118d7a18)" style="fill: #1f77b4; stroke: #1f77b4; stroke-width: 0.75; stroke-linecap: round"/>
   </g>
   <g id="patch_68">
    <path d="M 164.531988 127.134559 
Q 164.493666 126.860115 164.571305 127.41614 
" clip-path="url(#p12118d7a18)" style="fill: none; stroke: #1f77b4; stroke-width: 0.75; stroke-linecap: round"/>
    <path d="M 163.643352 130.170936 
L 164.571305 127.41614 
L 166.21837 129.811381 
z
" clip-path="url(#p12118d7a18)" style="fill: #1f77b4; stroke: #1f77b4; stroke-width: 0.75; stroke-linecap: round"/>
   </g>
   <g id="patch_69">
    <path d="M 194.437386 124.114172 
Q 193.986084 124.264721 194.330215 124.149923 
" clip-path="url(#p12118d7a18)" style="fill: none; stroke: #1f77b4; stroke-width: 0.75; stroke-linecap: round"/>
    <path d="M 197.207982 124.560359 
L 194.330215 124.149923 
L 196.385224 122.093971 
z
" clip-path="url(#p12118d7a18)" style="fill: #1f77b4; stroke: #1f77b4; stroke-width: 0.75; stroke-linecap: round"/>
   </g>
   <g id="patch_70">
    <path d="M 193.129014 146.223994 
Q 192.963418 146.241716 193.631587 146.17021 
" clip-path="url(#p12118d7a18)" style="fill: none; stroke: #1f77b4; stroke-width: 0.75; stroke-linecap: round"/>
    <path d="M 196.355159 147.186161 
L 193.631587 146.17021 
L 196.078491 144.600923 
z
" clip-path="url(#p12118d7a18)" style="fill: #1f77b4; stroke: #1f77b4; stroke-width: 0.75; stroke-linecap: round"/>
   </g>
   <g id="patch_71">
    <path d="M 71.762599 259 
L 71.762599 25.8 
" style="fill: none; stroke: #000000; stroke-width: 0.8; stroke-linejoin: miter; stroke-linecap: square"/>
   </g>
   <g id="patch_72">
    <path d="M 283.003348 259 
L 283.003348 25.8 
" style="fill: none; stroke: #000000; stroke-width: 0.8; stroke-linejoin: miter; stroke-linecap: square"/>
   </g>
   <g id="patch_73">
    <path d="M 71.762599 259 
L 283.003348 259 
" style="fill: none; stroke: #000000; stroke-width: 0.8; stroke-linejoin: miter; stroke-linecap: square"/>
   </g>
   <g id="patch_74">
    <path d="M 71.762599 25.8 
L 283.003348 25.8 
" style="fill: none; stroke: #000000; stroke-width: 0.8; stroke-linejoin: miter; stroke-linecap: square"/>
   </g>
   <g id="text_15">
    <!-- Streamlines, Re=1000 -->
    <g transform="translate(110.020786 19.8) scale(0.12 -0.12)">
     <defs>
      <path id="DejaVuSans-53" d="M 3425 4513 
L 3425 3897 
Q 3066 4069 2747 4153 
Q 2428 4238 2131 4238 
Q 1616 4238 1336 4038 
Q 1056 3838 1056 3469 
Q 1056 3159 1242 3001 
Q 1428 2844 1947 2747 
L 2328 2669 
Q 3034 2534 3370 2195 
Q 3706 1856 3706 1288 
Q 3706 609 3251 259 
Q 2797 -91 1919 -91 
Q 1588 -91 1214 -16 
Q 841 59 441 206 
L 441 856 
Q 825 641 1194 531 
Q 1563 422 1919 422 
Q 2459 422 2753 634 
Q 3047 847 3047 1241 
Q 3047 1584 2836 1778 
Q 2625 1972 2144 2069 
L 1759 2144 
Q 1053 2284 737 2584 
Q 422 2884 422 3419 
Q 422 4038 858 4394 
Q 1294 4750 2059 4750 
Q 2388 4750 2728 4690 
Q 3069 4631 3425 4513 
z
" transform="scale(0.015625)"/>
      <path id="DejaVuSans-74" d="M 1172 4494 
L 1172 3500 
L 2356 3500 
L 2356 3053 
L 1172 3053 
L 1172 1153 
Q 1172 725 1289 603 
Q 1406 481 1766 481 
L 2356 481 
L 2356 0 
L 1766 0 
Q 1100 0 847 248 
Q 594 497 594 1153 
L 594 3053 
L 172 3053 
L 172 3500 
L 594 3500 
L 594 4494 
L 1172 4494 
z
" transform="scale(0.015625)"/>
      <path id="DejaVuSans-72" d="M 2631 2963 
Q 2534 3019 2420 3045 
Q 2306 3072 2169 3072 
Q 1681 3072 1420 2755 
Q 1159 2438 1159 1844 
L 1159 0 
L 581 0 
L 581 3500 
L 1159 3500 
L 1159 2956 
Q 1341 3275 1631 3429 
Q 1922 3584 2338 3584 
Q 2397 3584 2469 3576 
Q 2541 3569 2628 3553 
L 2631 2963 
z
" transform="scale(0.015625)"/>
      <path id="DejaVuSans-65" d="M 3597 1894 
L 3597 1613 
L 953 1613 
Q 991 1019 1311 708 
Q 1631 397 2203 397 
Q 2534 397 2845 478 
Q 3156 559 3463 722 
L 3463 178 
Q 3153 47 2828 -22 
Q 2503 -91 2169 -91 
Q 1331 -91 842 396 
Q 353 884 353 1716 
Q 353 2575 817 3079 
Q 1281 3584 2069 3584 
Q 2775 3584 3186 3129 
Q 3597 2675 3597 1894 
z
M 3022 2063 
Q 3016 2534 2758 2815 
Q 2500 3097 2075 3097 
Q 1594 3097 1305 2825 
Q 1016 2553 972 2059 
L 3022 2063 
z
" transform="scale(0.015625)"/>
      <path id="DejaVuSans-61" d="M 2194 1759 
Q 1497 1759 1228 1600 
Q 959 1441 959 1056 
Q 959 750 1161 570 
Q 1363 391 1709 391 
Q 2188 391 2477 730 
Q 2766 1069 2766 1631 
L 2766 1759 
L 2194 1759 
z
M 3341 1997 
L 3341 0 
L 2766 0 
L 2766 531 
Q 2569 213 2275 61 
Q 1981 -91 1556 -91 
Q 1019 -91 701 211 
Q 384 513 384 1019 
Q 384 1609 779 1909 
Q 1175 2209 1959 2209 
L 2766 2209 
L 2766 2266 
Q 2766 2663 2505 2880 
Q 2244 3097 1772 3097 
Q 1472 3097 1187 3025 
Q 903 2953 641 2809 
L 641 3341 
Q 956 3463 1253 3523 
Q 1550 3584 1831 3584 
Q 2591 3584 2966 3190 
Q 3341 2797 3341 1997 
z
" transform="scale(0.015625)"/>
      <path id="DejaVuSans-6d" d="M 3328 2828 
Q 3544 3216 3844 3400 
Q 4144 3584 4550 3584 
Q 5097 3584 5394 3201 
Q 5691 2819 5691 2113 
L 5691 0 
L 5113 0 
L 5113 2094 
Q 5113 2597 4934 2840 
Q 4756 3084 4391 3084 
Q 3944 3084 3684 2787 
Q 3425 2491 3425 1978 
L 3425 0 
L 2847 0 
L 2847 2094 
Q 2847 2600 2669 2842 
Q 2491 3084 2119 3084 
Q 1678 3084 1418 2786 
Q 1159 2488 1159 1978 
L 1159 0 
L 581 0 
L 581 3500 
L 1159 3500 
L 1159 2956 
Q 1356 3278 1631 3431 
Q 1906 3584 2284 3584 
Q 2666 3584 2933 3390 
Q 3200 3197 3328 2828 
z
" transform="scale(0.015625)"/>
      <path id="DejaVuSans-6c" d="M 603 4863 
L 1178 4863 
L 1178 0 
L 603 0 
L 603 4863 
z
" transform="scale(0.015625)"/>
      <path id="DejaVuSans-69" d="M 603 3500 
L 1178 3500 
L 1178 0 
L 603 0 
L 603 3500 
z
M 603 4863 
L 1178 4863 
L 1178 4134 
L 603 4134 
L 603 4863 
z
" transform="scale(0.015625)"/>
      <path id="DejaVuSans-6e" d="M 3513 2113 
L 3513 0 
L 2938 0 
L 2938 2094 
Q 2938 2591 2744 2837 
Q 2550 3084 2163 3084 
Q 1697 3084 1428 2787 
Q 1159 2491 1159 1978 
L 1159 0 
L 581 0 
L 581 3500 
L 1159 3500 
L 1159 2956 
Q 1366 3272 1645 3428 
Q 1925 3584 2291 3584 
Q 2894 3584 3203 3211 
Q 3513 2838 3513 2113 
z
" transform="scale(0.015625)"/>
      <path id="DejaVuSans-73" d="M 2834 3397 
L 2834 2853 
Q 2591 2978 2328 3040 
Q 2066 3103 1784 3103 
Q 1356 3103 1142 2972 
Q 928 2841 928 2578 
Q 928 2378 1081 2264 
Q 1234 2150 1697 2047 
L 1894 2003 
Q 2506 1872 2764 1633 
Q 3022 1394 3022 966 
Q 3022 478 2636 193 
Q 2250 -91 1575 -91 
Q 1294 -91 989 -36 
Q 684 19 347 128 
L 347 722 
Q 666 556 975 473 
Q 1284 391 1588 391 
Q 1994 391 2212 530 
Q 2431 669 2431 922 
Q 2431 1156 2273 1281 
Q 2116 1406 1581 1522 
L 1381 1569 
Q 847 1681 609 1914 
Q 372 2147 372 2553 
Q 372 3047 722 3315 
Q 1072 3584 1716 3584 
Q 2034 3584 2315 3537 
Q 2597 3491 2834 3397 
z
" transform="scale(0.015625)"/>
      <path id="DejaVuSans-2c" d="M 750 794 
L 1409 794 
L 1409 256 
L 897 -744 
L 494 -744 
L 750 256 
L 750 794 
z
" transform="scale(0.015625)"/>
      <path id="DejaVuSans-20" transform="scale(0.015625)"/>
      <path id="DejaVuSans-52" d="M 2841 2188 
Q 3044 2119 3236 1894 
Q 3428 1669 3622 1275 
L 4263 0 
L 3584 0 
L 2988 1197 
Q 2756 1666 2539 1819 
Q 2322 1972 1947 1972 
L 1259 1972 
L 1259 0 
L 628 0 
L 628 4666 
L 2053 4666 
Q 2853 4666 3247 4331 
Q 3641 3997 3641 3322 
Q 3641 2881 3436 2590 
Q 3231 2300 2841 2188 
z
M 1259 4147 
L 1259 2491 
L 2053 2491 
Q 2509 2491 2742 2702 
Q 2975 2913 2975 3322 
Q 2975 3731 2742 3939 
Q 2509 4147 2053 4147 
L 1259 4147 
z
" transform="scale(0.015625)"/>
      <path id="DejaVuSans-3d" d="M 678 2906 
L 4684 2906 
L 4684 2381 
L 678 2381 
L 678 2906 
z
M 678 1631 
L 4684 1631 
L 4684 1100 
L 678 1100 
L 678 1631 
z
" transform="scale(0.015625)"/>
     </defs>
     <use xlink:href="#DejaVuSans-53"/>
     <use xlink:href="#DejaVuSans-74" transform="translate(63.476562 0)"/>
     <use xlink:href="#DejaVuSans-72" transform="translate(102.685547 0)"/>
     <use xlink:href="#DejaVuSans-65" transform="translate(141.548828 0)"/>
     <use xlink:href="#DejaVuSans-61" transform="translate(203.072266 0)"/>
     <use xlink:href="#DejaVuSans-6d" transform="translate(264.351562 0)"/>
     <use xlink:href="#DejaVuSans-6c" transform="translate(361.763672 0)"/>
     <use xlink:href="#DejaVuSans-69" transform="translate(389.546875 0)"/>
     <use xlink:href="#DejaVuSans-6e" transform="translate(417.330078 0)"/>
     <use xlink:href="#DejaVuSans-65" transform="translate(480.708984 0)"/>
     <use xlink:href="#DejaVuSans-73" transform="translate(542.232422 0)"/>
     <use xlink:href="#DejaVuSans-2c" transform="translate(594.332031 0)"/>
     <use xlink:href="#DejaVuSans-20" transform="translate(626.119141 0)"/>
     <use xlink:href="#DejaVuSans-52" transform="translate(657.90625 0)"/>
     <use xlink:href="#DejaVuSans-65" transform="translate(722.888672 0)"/>
     <use xlink:href="#DejaVuSans-3d" transform="translate(784.412109 0)"/>
     <use xlink:href="#DejaVuSans-31" transform="translate(868.201172 0)"/>
     <use xlink:href="#DejaVuSans-30" transform="translate(931.824219 0)"/>
     <use xlink:href="#DejaVuSans-30" transform="translate(995.447266 0)"/>
     <use xlink:href="#DejaVuSans-30" transform="translate(1059.070312 0)"/>
    </g>
   </g>
  </g>
 </g>
 <defs>
  <clipPath id="p12118d7a18">
   <rect x="71.762599" y="25.8" width="211.240749" height="233.2"/>
  </clipPath>
 </defs>
</svg>
