<?xml version="1.0" encoding="utf-8" standalone="no"?>
<svg xmlns="http://www.w3.org/2000/svg" width="1200" height="850" viewBox="0 0 1200 850">
  <rect width="100%" height="100%" fill="#ffffff"/>
  <text x="55" y="55" font-family="Arial, sans-serif" font-size="25" font-weight="700" fill="#111111">Velocity magnitude</text>
  <text x="655" y="55" font-family="Arial, sans-serif" font-size="25" font-weight="700" fill="#111111">Streamlines</text>
  <text x="55" y="455" font-family="Arial, sans-serif" font-size="25" font-weight="700" fill="#111111">Ghia validation</text>
  <text x="655" y="455" font-family="Arial, sans-serif" font-size="25" font-weight="700" fill="#111111">Study runtime</text>
  <rect x="40" y="30" width="520" height="380" fill="none" stroke="#d0d0d0" stroke-width="1"/>
  <rect x="640" y="30" width="520" height="380" fill="none" stroke="#d0d0d0" stroke-width="1"/>
  <rect x="40" y="430" width="520" height="380" fill="none" stroke="#d0d0d0" stroke-width="1"/>
  <rect x="640" y="430" width="520" height="380" fill="none" stroke="#d0d0d0" stroke-width="1"/>
  <text x="300" y="95" text-anchor="middle" font-family="Arial, sans-serif" font-size="15" font-weight="700" fill="#111111">Velocity magnitude, N=128, Re=100</text>
  <text x="900" y="95" text-anchor="middle" font-family="Arial, sans-serif" font-size="15" font-weight="700" fill="#111111">Streamlines, central + RBSOR</text>
  <text x="300" y="495" text-anchor="middle" font-family="Arial, sans-serif" font-size="15" font-weight="700" fill="#111111">Vertical centerline validation, Re=100</text>
  <text x="900" y="495" text-anchor="middle" font-family="Arial, sans-serif" font-size="15" font-weight="700" fill="#111111">Pressure-solver runtime</text>
  <defs>
    <linearGradient id="speedGrad" x1="0" x2="1" y1="1" y2="0">
      <stop offset="0%" stop-color="#440154"/>
      <stop offset="40%" stop-color="#31688e"/>
      <stop offset="70%" stop-color="#35b779"/>
      <stop offset="100%" stop-color="#fde725"/>
    </linearGradient>
  </defs>
  <rect x="100" y="120" width="370" height="250" fill="#381464" stroke="#555"/>
  <path d="M105 122 C180 155 255 160 330 145 C390 134 430 115 468 120 L468 155 C420 150 370 175 330 220 C280 280 190 240 105 160 Z" fill="url(#speedGrad)" opacity="0.95"/>
  <path d="M105 122 C160 135 215 138 275 130 C330 122 390 110 468 120" fill="none" stroke="#dce775" stroke-width="1" opacity="0.8"/>
  <path d="M110 150 C190 200 290 215 455 145" fill="none" stroke="#90caf9" stroke-width="1" opacity="0.7"/>
  <path d="M130 185 C210 250 330 265 450 185" fill="none" stroke="#90caf9" stroke-width="1" opacity="0.45"/>
  <path d="M155 230 C225 300 340 315 430 245" fill="none" stroke="#90caf9" stroke-width="1" opacity="0.35"/>
  <text x="285" y="390" text-anchor="middle" font-family="Arial, sans-serif" font-size="12" fill="#222">x</text>
  <text x="75" y="250" text-anchor="middle" font-family="Arial, sans-serif" font-size="12" fill="#222" transform="rotate(-90 75 250)">y</text>
  <rect x="485" y="120" width="18" height="250" fill="url(#speedGrad)" stroke="#555"/>
  <text x="515" y="125" font-family="Arial, sans-serif" font-size="10" fill="#222">1.0</text>
  <text x="515" y="370" font-family="Arial, sans-serif" font-size="10" fill="#222">0.0</text>
  <rect x="700" y="120" width="370" height="250" fill="#ffffff" stroke="#555"/>
  <g fill="none" stroke="#4263ff" stroke-width="1.2" opacity="0.95">
    <path d="M722 140 C735 190 760 245 825 290 C900 340 1015 270 1045 190 C1060 145 1015 130 960 137 C875 145 825 175 805 220 C780 275 840 330 925 320 C1020 310 1065 220 1050 160"/>
    <path d="M745 150 C760 210 800 265 870 292 C940 320 1010 275 1028 215 C1045 160 1000 145 945 150 C875 155 835 185 822 225 C800 285 870 305 930 290 C990 275 1020 220 1012 175"/>
    <path d="M770 165 C790 215 835 260 890 272 C950 285 995 245 1002 205 C1010 170 975 160 935 165 C875 175 850 200 850 230 C850 265 895 275 930 260 C970 245 985 210 978 185"/>
    <path d="M795 185 C820 225 865 250 905 248 C945 245 970 220 965 195 C960 175 935 172 910 180 C880 190 865 210 872 230 C880 252 910 250 932 235"/>
    <path d="M725 350 C760 335 795 330 830 338 C790 358 760 362 725 350"/>
    <path d="M1030 350 C1060 335 1072 320 1065 300 C1048 320 1038 335 1030 350"/>
  </g>
  <g fill="#4263ff">
    <polygon points="960,137 950,133 955,142"/>
    <polygon points="1028,215 1022,205 1034,208"/>
    <polygon points="870,292 860,287 864,298"/>
    <polygon points="850,230 844,220 856,223"/>
  </g>
  <text x="885" y="390" text-anchor="middle" font-family="Arial, sans-serif" font-size="12" fill="#222">x</text>
  <text x="675" y="250" text-anchor="middle" font-family="Arial, sans-serif" font-size="12" fill="#222" transform="rotate(-90 675 250)">y</text>
  <rect x="95" y="520" width="420" height="250" fill="#fff" stroke="#888"/>
  <g stroke="#e6e6e6" stroke-width="1">
    <line x1="95" y1="570" x2="515" y2="570"/><line x1="95" y1="620" x2="515" y2="620"/><line x1="95" y1="670" x2="515" y2="670"/><line x1="95" y1="720" x2="515" y2="720"/>
    <line x1="155" y1="520" x2="155" y2="770"/><line x1="215" y1="520" x2="215" y2="770"/><line x1="275" y1="520" x2="275" y2="770"/><line x1="335" y1="520" x2="335" y2="770"/><line x1="395" y1="520" x2="395" y2="770"/><line x1="455" y1="520" x2="455" y2="770"/>
  </g>
  <path d="M155 770 C130 725 115 665 125 620 C140 555 220 525 510 520" fill="none" stroke="#0072bd" stroke-width="2.2"/>
  <g fill="#fff" stroke="#d95319" stroke-width="1.6">
    <circle cx="155" cy="770" r="3"/><circle cx="128" cy="690" r="3"/><circle cx="122" cy="645" r="3"/><circle cx="140" cy="610" r="3"/><circle cx="210" cy="565" r="3"/><circle cx="350" cy="535" r="3"/><circle cx="500" cy="520" r="3"/>
  </g>
  <text x="305" y="790" text-anchor="middle" font-family="Arial, sans-serif" font-size="12" fill="#222">u velocity at x=0.5</text>
  <text x="70" y="645" text-anchor="middle" font-family="Arial, sans-serif" font-size="12" fill="#222" transform="rotate(-90 70 645)">y</text>
  <rect x="390" y="700" width="105" height="48" fill="#fff" stroke="#c8c8c8"/>
  <line x1="402" y1="716" x2="430" y2="716" stroke="#0072bd" stroke-width="2"/>
  <text x="438" y="720" font-family="Arial, sans-serif" font-size="11" fill="#222">Solver</text>
  <circle cx="416" cy="735" r="3" fill="#fff" stroke="#d95319" stroke-width="1.5"/>
  <text x="438" y="739" font-family="Arial, sans-serif" font-size="11" fill="#222">Ghia et al.</text>
  <rect x="700" y="520" width="420" height="250" fill="#fff" stroke="#888"/>
  <g stroke="#e6e6e6" stroke-width="1">
    <line x1="700" y1="720" x2="1120" y2="720"/><line x1="700" y1="670" x2="1120" y2="670"/><line x1="700" y1="620" x2="1120" y2="620"/><line x1="700" y1="570" x2="1120" y2="570"/>
  </g>
  <g fill="#1f77b4" opacity="0.75">
    <circle cx="735" cy="735" r="4"/><circle cx="745" cy="730" r="4"/><circle cx="755" cy="725" r="4"/><circle cx="750" cy="600" r="4"/><circle cx="765" cy="560" r="4"/><circle cx="775" cy="535" r="4"/><circle cx="785" cy="510" r="4"/><circle cx="770" cy="690" r="4"/><circle cx="740" cy="745" r="4"/>
  </g>
  <g fill="#ff7f0e" opacity="0.80">
    <circle cx="1035" cy="735" r="4"/><circle cx="1045" cy="735" r="4"/><circle cx="1055" cy="730" r="4"/><circle cx="1065" cy="695" r="4"/><circle cx="1075" cy="685" r="4"/><circle cx="1085" cy="675" r="4"/><circle cx="1095" cy="660" r="4"/><circle cx="1050" cy="720" r="4"/><circle cx="1070" cy="735" r="4"/>
  </g>
  <text x="760" y="744" text-anchor="middle" font-family="Arial, sans-serif" font-size="12" fill="#222">RBGS</text>
  <text x="1060" y="744" text-anchor="middle" font-family="Arial, sans-serif" font-size="12" fill="#222">RBSOR</text>
  <text x="680" y="650" text-anchor="middle" font-family="Arial, sans-serif" font-size="12" fill="#222" transform="rotate(-90 680 650)">Runtime [s]</text>
  <text x="910" y="545" text-anchor="middle" font-family="Arial, sans-serif" font-size="13" fill="#555">RBSOR about 4.5× faster overall</text>
  <path d="M750 655 L770 635 M770 655 L750 635" stroke="#000" stroke-width="4"/>
  <path d="M1050 705 L1070 685 M1070 705 L1050 685" stroke="#000" stroke-width="4"/>
</svg>
